<svg xmlns="http://www.w3.org/2000/svg" xmlns:xlink="http://www.w3.org/1999/xlink" width="2666" zoomAndPan="magnify" viewBox="0 0 1999.5 519.750007" height="693" preserveAspectRatio="xMidYMid meet" version="1.0"><defs><clipPath id="becfd95e91"><path d="M 41.769531 81.816406 L 272 81.816406 L 272 429 L 41.769531 429 Z M 41.769531 81.816406 " clip-rule="nonzero"/></clipPath><clipPath id="c0fb529f25"><path d="M 149.804688 81.816406 C 168.347656 81.816406 182.65625 83.785156 192.734375 87.714844 C 202.8125 91.644531 211.4375 95.8125 218.675781 100.214844 C 222.445312 102.414062 225.515625 104.070312 227.875 105.160156 C 230.234375 106.25 232.515625 106.8125 234.714844 106.8125 C 237.851562 106.8125 240.132812 105.082031 241.550781 101.621094 C 242.972656 98.164062 244.152344 92.976562 245.089844 86.054688 L 255.9375 86.054688 C 255.617188 92.035156 255.230469 99.195312 254.757812 107.519531 C 254.289062 115.847656 253.96875 126.785156 253.820312 140.3125 C 253.667969 153.839844 253.578125 171.605469 253.578125 193.621094 L 242.730469 193.621094 C 241.472656 177.277344 237.691406 161.390625 231.414062 145.972656 C 225.136719 130.554688 216.238281 117.910156 204.761719 108 C 193.285156 98.09375 179.207031 93.144531 162.539062 93.144531 C 147.445312 93.144531 135.015625 97.394531 125.269531 105.882812 C 115.519531 114.371094 110.640625 126.167969 110.640625 141.253906 C 110.640625 153.839844 113.78125 164.609375 120.082031 173.566406 C 126.378906 182.523438 135.566406 191.261719 147.671875 199.75 C 159.78125 208.238281 174.476562 218.464844 191.785156 230.414062 C 206.878906 240.160156 220.398438 249.917969 232.355469 259.667969 C 244.3125 269.414062 253.890625 280.421875 261.128906 292.6875 C 268.367188 304.957031 271.976562 319.574219 271.976562 336.558594 C 271.976562 357.3125 266.546875 374.460938 255.699219 387.976562 C 244.851562 401.492188 230.613281 411.640625 213.007812 418.398438 C 195.402344 425.160156 176.046875 428.539062 154.980469 428.539062 C 135.476562 428.539062 119.910156 426.648438 108.28125 422.878906 C 96.65625 419.109375 86.886719 415.179688 79.03125 411.082031 C 72.109375 406.683594 66.761719 404.472656 62.992188 404.472656 C 59.84375 404.472656 57.566406 406.203125 56.15625 409.660156 C 54.746094 413.121094 53.554688 418.308594 52.617188 425.226562 L 41.769531 425.226562 C 42.386719 417.679688 42.789062 408.882812 42.949219 398.8125 C 43.109375 388.746094 43.257812 375.621094 43.417969 359.421875 C 43.578125 343.226562 43.65625 322.710938 43.65625 297.859375 L 54.503906 297.859375 C 55.753906 318.613281 59.292969 338.039062 65.121094 356.125 C 70.953125 374.210938 79.898438 388.757812 92.015625 399.765625 C 104.132812 410.773438 120.238281 416.28125 140.375 416.28125 C 151.382812 416.28125 161.210938 414.320312 169.859375 410.382812 C 178.507812 406.441406 185.503906 400.554688 190.855469 392.695312 C 196.203125 384.835938 198.871094 375.089844 198.871094 363.441406 C 198.871094 350.234375 195.800781 338.757812 189.675781 329 C 183.546875 319.242188 175.207031 310.136719 164.667969 301.636719 C 154.132812 293.140625 141.945312 284.5 128.109375 275.691406 C 113.320312 265.945312 99.484375 256.195312 86.597656 246.441406 C 73.710938 236.683594 63.402344 225.523438 55.695312 212.945312 C 47.988281 200.371094 44.128906 185.445312 44.128906 168.148438 C 44.128906 148.332031 49.085938 132.054688 58.984375 119.320312 C 68.882812 106.582031 81.9375 97.152344 98.144531 91.015625 C 114.351562 84.875 131.558594 81.816406 149.804688 81.816406 " clip-rule="nonzero"/></clipPath><clipPath id="2c1c93b098"><path d="M 311.46875 171.453125 L 515.421875 171.453125 L 515.421875 428.726562 L 311.46875 428.726562 Z M 311.46875 171.453125 " clip-rule="nonzero"/></clipPath><clipPath id="227f23e87e"><path d="M 428.460938 171.453125 C 440.726562 171.453125 451.964844 172.792969 462.191406 175.460938 C 472.421875 178.128906 480.828125 181.519531 487.425781 185.597656 C 495.605469 190.636719 501.972656 196.847656 506.53125 204.234375 C 511.09375 211.621094 513.371094 220.199219 513.371094 229.949219 C 513.371094 240.957031 509.902344 249.992188 502.992188 257.070312 C 496.085938 264.148438 487.109375 267.691406 476.101562 267.691406 C 465.09375 267.691406 456.285156 264.550781 449.6875 258.25 C 443.085938 251.953125 439.777344 243.476562 439.777344 232.777344 C 439.777344 222.710938 442.917969 214.300781 449.214844 207.535156 C 455.515625 200.765625 462.734375 196.296875 470.921875 194.085938 C 468.402344 190.945312 464.621094 188.269531 459.605469 186.066406 C 454.585938 183.867188 448.90625 182.769531 442.617188 182.769531 C 432.871094 182.769531 424.292969 185.597656 416.902344 191.257812 C 409.515625 196.914062 403.296875 204.792969 398.269531 214.851562 C 393.238281 224.910156 389.378906 236.714844 386.710938 250.234375 C 384.042969 263.75 382.703125 278.535156 382.703125 294.582031 C 382.703125 318.808594 385.769531 337.832031 391.898438 351.671875 C 398.027344 365.507812 405.886719 375.253906 415.484375 380.921875 C 425.082031 386.59375 435.070312 389.402344 445.445312 389.402344 C 451.414062 389.402344 457.945312 388.460938 465.023438 386.570312 C 472.101562 384.683594 479.328125 380.914062 486.726562 375.253906 C 494.125 369.597656 500.953125 361.578125 507.253906 351.191406 L 515.269531 354.019531 C 511.8125 365.65625 506.144531 377.292969 498.285156 388.929688 C 490.425781 400.570312 480.199219 410.085938 467.621094 417.476562 C 455.046875 424.863281 439.628906 428.5625 421.394531 428.5625 C 400.949219 428.5625 382.472656 424.082031 365.964844 415.117188 C 349.460938 406.148438 336.242188 392.320312 326.335938 373.605469 C 316.425781 354.890625 311.46875 330.746094 311.46875 301.183594 C 311.46875 272.878906 316.578125 249.054688 326.792969 229.707031 C 337.011719 210.363281 350.9375 195.824219 368.554688 186.078125 C 386.171875 176.332031 406.125 171.453125 428.460938 171.453125 " clip-rule="nonzero"/></clipPath><clipPath id="3645f1e258"><path d="M 541.109375 171.453125 L 746.394531 171.453125 L 746.394531 422 L 541.109375 422 Z M 541.109375 171.453125 " clip-rule="nonzero"/></clipPath><clipPath id="0ee44126f8"><path d="M 703.394531 171.453125 C 713.460938 171.453125 721.628906 173.570312 727.925781 177.820312 C 734.226562 182.070312 738.855469 187.488281 741.84375 194.097656 C 744.832031 200.703125 746.324219 207.625 746.324219 214.851562 C 746.324219 226.488281 742.945312 236.007812 736.175781 243.394531 C 729.40625 250.785156 720.527344 254.484375 709.519531 254.484375 C 698.515625 254.484375 689.945312 251.734375 683.808594 246.222656 C 677.667969 240.714844 674.609375 233.417969 674.609375 224.289062 C 674.609375 215.492188 676.570312 208.171875 680.507812 202.355469 C 684.445312 196.535156 689.386719 191.585938 695.363281 187.488281 C 690.957031 186.238281 686.554688 186.386719 682.15625 187.957031 C 676.179688 188.898438 670.519531 191.335938 665.171875 195.265625 C 659.824219 199.195312 655.265625 204.074219 651.496094 209.894531 C 647.726562 215.710938 644.726562 222 642.527344 228.757812 C 640.328125 235.515625 639.226562 242.046875 639.226562 248.332031 L 639.226562 373.363281 C 639.226562 388.460938 642.917969 398.6875 650.316406 404.027344 C 657.714844 409.367188 668.789062 412.046875 683.578125 412.046875 L 683.578125 421.953125 C 676.339844 421.644531 665.800781 421.242188 651.972656 420.773438 C 638.148438 420.304688 623.671875 420.0625 608.574219 420.0625 C 595.996094 420.0625 583.25 420.304688 570.363281 420.773438 C 557.476562 421.242188 547.707031 421.644531 541.109375 421.953125 L 541.109375 412.046875 C 552.117188 412.046875 559.894531 409.6875 564.464844 404.96875 C 569.035156 400.25 571.304688 391.289062 571.304688 378.074219 L 571.304688 229.476562 C 571.304688 215.332031 569.183594 204.875 564.933594 198.105469 C 560.6875 191.335938 552.738281 187.96875 541.109375 187.96875 L 541.109375 178.058594 C 551.167969 179 560.925781 179.480469 570.363281 179.480469 C 583.570312 179.480469 595.90625 178.929688 607.394531 177.832031 C 618.882812 176.730469 629.488281 175.082031 639.238281 172.882812 L 639.238281 216.742188 C 643.015625 208.253906 648.035156 200.546875 654.332031 193.625 C 660.632812 186.707031 667.851562 181.28125 676.027344 177.351562 C 684.207031 173.421875 693.324219 171.453125 703.394531 171.453125 " clip-rule="nonzero"/></clipPath><clipPath id="a27bd5e109"><path d="M 775.425781 56.34375 L 904 56.34375 L 904 422 L 775.425781 422 Z M 775.425781 56.34375 " clip-rule="nonzero"/></clipPath><clipPath id="2ba8597a7a"><path d="M 836.753906 56.34375 C 849.960938 56.34375 860.417969 59.574219 868.125 66.011719 C 875.832031 72.449219 879.683594 81.335938 879.683594 92.664062 C 879.683594 103.992188 875.824219 112.878906 868.125 119.320312 C 860.425781 125.757812 849.96875 128.988281 836.753906 128.988281 C 823.535156 128.988281 813.085938 125.765625 805.378906 119.320312 C 797.671875 112.871094 793.824219 103.992188 793.824219 92.664062 C 793.824219 81.335938 797.671875 72.460938 805.378906 66.011719 C 813.085938 59.5625 823.546875 56.34375 836.753906 56.34375 M 873.554688 172.867188 L 873.554688 378.078125 C 873.554688 391.285156 875.832031 400.253906 880.390625 404.972656 C 884.953125 409.691406 892.730469 412.050781 903.746094 412.050781 L 903.746094 421.960938 C 897.769531 421.648438 888.878906 421.25 877.09375 420.78125 C 865.304688 420.308594 853.269531 420.070312 841 420.070312 C 828.734375 420.070312 816.308594 420.308594 803.730469 420.78125 C 791.152344 421.25 781.714844 421.648438 775.425781 421.960938 L 775.425781 412.050781 C 786.433594 412.050781 794.210938 409.691406 798.78125 404.972656 C 803.351562 400.253906 805.621094 391.296875 805.621094 378.078125 L 805.621094 229.472656 C 805.621094 215.328125 803.5 204.871094 799.25 198.101562 C 795.003906 191.332031 787.054688 187.964844 775.425781 187.964844 L 775.425781 178.054688 C 785.496094 178.996094 795.242188 179.476562 804.679688 179.476562 C 817.886719 179.476562 830.222656 178.925781 841.710938 177.824219 C 853.199219 176.726562 863.804688 175.074219 873.554688 172.875 " clip-rule="nonzero"/></clipPath><clipPath id="ad280fe1a3"><path d="M 917.984375 171.453125 L 1173.925781 171.453125 L 1173.925781 507.375 L 917.984375 507.375 Z M 917.984375 171.453125 " clip-rule="nonzero"/></clipPath><clipPath id="794c64017c"><path d="M 1089.234375 171.453125 C 1105.273438 171.453125 1119.578125 175.78125 1132.164062 184.429688 C 1144.753906 193.078125 1154.808594 206.132812 1162.359375 223.589844 C 1169.90625 241.046875 1173.675781 262.820312 1173.675781 288.925781 C 1173.675781 311.878906 1171.078125 332.015625 1165.886719 349.308594 C 1160.699219 366.605469 1153.308594 381.152344 1143.710938 392.949219 C 1134.113281 404.746094 1122.636719 413.636719 1109.269531 419.605469 C 1095.902344 425.574219 1080.886719 428.5625 1064.222656 428.5625 C 1051.953125 428.5625 1040.785156 426.441406 1030.730469 422.195312 C 1020.660156 417.945312 1012.953125 411.894531 1007.613281 404.027344 L 1012.332031 397.898438 C 1015.472656 403.558594 1019.953125 407.96875 1025.78125 411.105469 C 1031.597656 414.253906 1038.277344 415.824219 1045.824219 415.824219 C 1059.980469 415.824219 1071.140625 411.035156 1079.316406 401.4375 C 1087.496094 391.839844 1093.394531 378.324219 1097.011719 360.867188 C 1100.632812 343.410156 1102.441406 322.585938 1102.441406 298.363281 C 1102.441406 271.320312 1100.710938 250.082031 1097.253906 234.675781 C 1093.792969 219.269531 1089.066406 208.242188 1083.097656 201.644531 C 1077.128906 195.046875 1069.890625 191.738281 1061.390625 191.738281 C 1050.074219 191.738281 1039.765625 196.144531 1030.488281 204.945312 C 1021.210938 213.742188 1015.941406 226.339844 1014.691406 242.683594 L 1012.332031 226.179688 C 1017.992188 208.253906 1027.667969 194.65625 1041.347656 185.367188 C 1055.023438 176.082031 1070.988281 171.453125 1089.234375 171.453125 M 1016.113281 172.871094 L 1016.113281 460.632812 C 1016.113281 475.410156 1019.882812 485.238281 1027.441406 490.117188 C 1034.996094 494.996094 1045.367188 497.425781 1058.574219 497.425781 L 1058.574219 507.332031 C 1050.394531 507.015625 1039.148438 506.625 1024.839844 506.152344 C 1010.535156 505.683594 995.355469 505.445312 979.3125 505.445312 C 967.671875 505.445312 956.265625 505.683594 945.109375 506.152344 C 933.953125 506.625 925.535156 507.015625 919.875 507.332031 L 919.875 497.425781 C 930.253906 497.425781 937.5625 495.226562 941.808594 490.816406 C 946.058594 486.410156 948.179688 477.921875 948.179688 465.34375 L 948.179688 229.476562 C 948.179688 215.332031 945.96875 204.875 941.570312 198.105469 C 937.171875 191.335938 929.300781 187.96875 917.984375 187.96875 L 917.984375 178.058594 C 928.042969 179 937.800781 179.480469 947.238281 179.480469 C 960.125 179.480469 972.390625 178.929688 984.03125 177.832031 C 995.667969 176.730469 1006.355469 175.070312 1016.113281 172.871094 " clip-rule="nonzero"/></clipPath><clipPath id="7204d519e5"><path d="M 1187.488281 100.6875 L 1356 100.6875 L 1356 428.613281 L 1187.488281 428.613281 Z M 1187.488281 100.6875 " clip-rule="nonzero"/></clipPath><clipPath id="0b10c790f9"><path d="M 1295.042969 100.6875 L 1295.042969 178.058594 L 1350.710938 178.058594 L 1350.710938 187.5 L 1295.042969 187.5 L 1295.042969 378.074219 C 1295.042969 387.511719 1296.773438 394.191406 1300.234375 398.121094 C 1303.691406 402.046875 1308.878906 404.019531 1315.800781 404.019531 C 1321.457031 404.019531 1327.125 401.898438 1332.785156 397.648438 C 1338.445312 393.402344 1343.472656 386.09375 1347.882812 375.714844 L 1355.898438 379.953125 C 1350.871094 394.109375 1343.234375 405.746094 1333.023438 414.867188 C 1322.816406 423.984375 1308.878906 428.542969 1291.273438 428.542969 C 1280.898438 428.542969 1271.769531 427.203125 1263.910156 424.535156 C 1256.054688 421.863281 1249.445312 417.855469 1244.09375 412.507812 C 1237.175781 405.597656 1232.609375 397.019531 1230.410156 386.792969 C 1228.210938 376.566406 1227.109375 363.289062 1227.109375 346.929688 L 1227.109375 187.488281 L 1187.488281 187.488281 L 1187.488281 178.058594 L 1227.121094 178.058594 L 1227.121094 115.785156 C 1240.328125 115.785156 1252.515625 114.605469 1263.679688 112.246094 C 1274.847656 109.886719 1285.296875 106.035156 1295.042969 100.6875 " clip-rule="nonzero"/></clipPath><clipPath id="0c6d899e14"><path d="M 1753 171 L 1958.253906 171 L 1958.253906 422 L 1753 422 Z M 1753 171 " clip-rule="nonzero"/></clipPath><clipPath id="92e0b3b3bd"><path d="M 1915.300781 171.445312 C 1925.359375 171.445312 1933.539062 173.566406 1939.835938 177.816406 C 1946.132812 182.0625 1950.761719 187.484375 1953.753906 194.089844 C 1956.742188 200.699219 1958.230469 207.617188 1958.230469 214.847656 C 1958.230469 226.484375 1954.84375 236 1948.082031 243.390625 C 1941.324219 250.777344 1932.4375 254.476562 1921.429688 254.476562 C 1910.421875 254.476562 1901.855469 251.726562 1895.714844 246.21875 C 1889.578125 240.710938 1886.519531 233.414062 1886.519531 224.285156 C 1886.519531 215.488281 1888.476562 208.167969 1892.417969 202.351562 C 1896.355469 196.53125 1901.304688 191.582031 1907.28125 187.484375 C 1902.875 186.234375 1898.476562 186.382812 1894.078125 187.953125 C 1888.097656 188.894531 1882.4375 191.332031 1877.089844 195.261719 C 1871.742188 199.191406 1867.183594 204.070312 1863.402344 209.886719 C 1859.625 215.707031 1856.636719 221.996094 1854.445312 228.753906 C 1852.257812 235.511719 1851.144531 242.039062 1851.144531 248.328125 L 1851.144531 373.359375 C 1851.144531 388.457031 1854.835938 398.683594 1862.234375 404.023438 C 1869.621094 409.371094 1880.699219 412.042969 1895.496094 412.042969 L 1895.496094 421.949219 C 1888.257812 421.640625 1877.71875 421.238281 1863.894531 420.769531 C 1850.046875 420.300781 1835.589844 420.058594 1820.492188 420.058594 C 1807.90625 420.058594 1795.179688 420.300781 1782.28125 420.769531 C 1769.386719 421.238281 1759.636719 421.640625 1753.027344 421.949219 L 1753.027344 412.042969 C 1764.035156 412.042969 1771.816406 409.683594 1776.382812 404.964844 C 1780.933594 400.242188 1783.222656 391.285156 1783.222656 378.070312 L 1783.222656 229.472656 C 1783.222656 215.328125 1781.101562 204.867188 1776.851562 198.101562 C 1772.605469 191.332031 1764.667969 187.964844 1753.027344 187.964844 L 1753.027344 178.054688 C 1763.097656 178.996094 1772.84375 179.476562 1782.28125 179.476562 C 1795.488281 179.476562 1807.824219 178.925781 1819.3125 177.824219 C 1830.800781 176.726562 1841.410156 175.074219 1851.15625 172.875 L 1851.15625 216.746094 C 1854.925781 208.257812 1859.953125 200.550781 1866.253906 193.632812 C 1872.550781 186.714844 1879.769531 181.292969 1887.957031 177.355469 C 1896.144531 173.417969 1905.253906 171.457031 1915.320312 171.457031 " clip-rule="nonzero"/></clipPath><clipPath id="0ed3b63287"><path d="M 1356 469 L 1725.640625 469 L 1725.640625 498 L 1356 498 Z M 1356 469 " clip-rule="nonzero"/></clipPath><clipPath id="97461d7297"><path d="M 1720.855469 497.832031 L 1360.730469 497.832031 C 1358.148438 497.832031 1356.0625 495.742188 1356.0625 493.164062 L 1356.0625 473.6875 C 1356.0625 471.109375 1358.148438 469.019531 1360.730469 469.019531 L 1720.855469 469.019531 C 1723.4375 469.019531 1725.523438 471.109375 1725.523438 473.6875 L 1725.523438 493.164062 C 1725.523438 495.742188 1723.4375 497.832031 1720.855469 497.832031 " clip-rule="nonzero"/></clipPath><clipPath id="e3b6d77ad7"><path d="M 1730.308594 469 L 1781 469 L 1781 498 L 1730.308594 498 Z M 1730.308594 469 " clip-rule="nonzero"/></clipPath><clipPath id="f21f2e64c6"><path d="M 1735.394531 469.597656 L 1777.234375 479.496094 C 1781.382812 480.476562 1781.382812 486.382812 1777.234375 487.363281 L 1735.394531 497.261719 C 1732.855469 497.863281 1730.425781 495.933594 1730.425781 493.332031 L 1730.425781 473.527344 C 1730.425781 470.917969 1732.855469 468.988281 1735.394531 469.589844 " clip-rule="nonzero"/></clipPath><clipPath id="e9c827d964"><path d="M 1373.058594 12.210938 L 1761 12.210938 L 1761 231 L 1373.058594 231 Z M 1373.058594 12.210938 " clip-rule="nonzero"/></clipPath><clipPath id="5c5158cc10"><path d="M 1758.167969 125.328125 L 1569.152344 230.222656 C 1567.882812 230.933594 1566.332031 230.933594 1565.0625 230.222656 L 1376.054688 125.328125 C 1373.167969 123.726562 1373.167969 119.570312 1376.054688 117.96875 L 1565.0625 13.074219 C 1566.332031 12.363281 1567.882812 12.363281 1569.152344 13.074219 L 1758.167969 117.96875 C 1761.058594 119.570312 1761.058594 123.726562 1758.167969 125.328125 " clip-rule="nonzero"/></clipPath><clipPath id="18d4037fd6"><path d="M 1367.058594 124.183594 L 1381.722656 124.183594 L 1381.722656 172 L 1367.058594 172 Z M 1367.058594 124.183594 " clip-rule="nonzero"/></clipPath><clipPath id="13c7de3da2"><path d="M 1381.183594 148.273438 C 1381.183594 161.25 1378.066406 171.757812 1374.214844 171.757812 C 1370.367188 171.757812 1367.25 161.238281 1367.25 148.273438 C 1367.25 135.304688 1370.367188 124.789062 1374.214844 124.789062 C 1378.066406 124.789062 1381.183594 135.304688 1381.183594 148.273438 " clip-rule="nonzero"/></clipPath><clipPath id="fd3ec5fa3e"><path d="M 1439.042969 99.523438 L 1692 99.523438 L 1692 466.105469 L 1439.042969 466.105469 Z M 1439.042969 99.523438 " clip-rule="nonzero"/></clipPath><clipPath id="1204bf2a88"><path d="M 1691.273438 319.402344 C 1693.933594 420.558594 1634.726562 466.019531 1564.972656 466.019531 C 1495.21875 466.019531 1439.179688 427.457031 1439.179688 326.25 C 1439.179688 225.042969 1472.414062 99.523438 1564.960938 99.542969 C 1662.699219 99.574219 1688.894531 229.203125 1691.261719 319.402344 " clip-rule="nonzero"/></clipPath><clipPath id="b3013219c1"><path d="M 1410 230.160156 L 1490.363281 230.160156 L 1490.363281 442.777344 L 1410 442.777344 Z M 1410 230.160156 " clip-rule="nonzero"/></clipPath><clipPath id="371e881f25"><path d="M 1488.640625 275.703125 C 1488.640625 275.703125 1431.285156 344.148438 1490.269531 442.625 C 1490.269531 442.625 1468.253906 425.5 1458.535156 410.121094 L 1464.265625 425.757812 C 1464.265625 425.757812 1410.707031 391.945312 1410.429688 327.519531 C 1410.148438 263.09375 1456.46875 230.453125 1456.46875 230.453125 L 1488.640625 275.703125 " clip-rule="nonzero"/></clipPath><clipPath id="2d9a616419"><path d="M 1639 230.160156 L 1719 230.160156 L 1719 442.777344 L 1639 442.777344 Z M 1639 230.160156 " clip-rule="nonzero"/></clipPath><clipPath id="33ac4165c9"><path d="M 1640.683594 275.703125 C 1640.683594 275.703125 1698.042969 344.148438 1639.054688 442.625 C 1639.054688 442.625 1661.070312 425.5 1670.789062 410.121094 L 1665.058594 425.757812 C 1665.058594 425.757812 1718.617188 391.945312 1718.898438 327.519531 C 1719.175781 263.09375 1672.859375 230.453125 1672.859375 230.453125 L 1640.683594 275.703125 " clip-rule="nonzero"/></clipPath><clipPath id="0ac51eed1c"><path d="M 1429 79 L 1708 79 L 1708 298 L 1429 298 Z M 1429 79 " clip-rule="nonzero"/></clipPath><clipPath id="f32445aae2"><path d="M 1558.714844 252.6875 C 1558.714844 252.6875 1552.914062 260.996094 1549.445312 262.914062 L 1552.054688 256.207031 C 1552.054688 256.207031 1544.816406 269.953125 1540.46875 270.273438 C 1536.117188 270.59375 1533.230469 279.863281 1520.183594 283.0625 C 1507.136719 286.261719 1493.238281 288.488281 1486 288.167969 L 1487.738281 290.410156 C 1487.738281 290.410156 1473.832031 289.128906 1471.804688 285.300781 L 1470.355469 287.859375 C 1470.355469 287.859375 1437.042969 269.644531 1431.53125 247.589844 C 1426.023438 225.535156 1434.210938 173.40625 1456.046875 153.132812 C 1477.882812 132.855469 1481.652344 128.707031 1481.652344 128.707031 C 1481.652344 128.707031 1508.304688 102.503906 1542.777344 100.261719 L 1545.386719 100.261719 C 1545.386719 100.261719 1535.539062 91.957031 1519.894531 96.746094 C 1519.894531 96.746094 1534.667969 84.277344 1554.65625 100.261719 C 1554.65625 100.261719 1545.675781 86.847656 1545.386719 80.769531 C 1545.386719 80.769531 1552.046875 91.316406 1554.074219 92.273438 C 1554.074219 92.273438 1549.4375 83.328125 1553.203125 79.167969 C 1553.203125 79.167969 1555.234375 89.394531 1561.894531 94.824219 C 1561.894531 94.824219 1561.972656 86.515625 1568.011719 82.039062 C 1568.011719 82.039062 1565.363281 92.265625 1566.230469 98.652344 C 1567.101562 105.042969 1566.230469 102.492188 1566.230469 102.492188 C 1566.230469 102.492188 1569.421875 83.957031 1587.667969 84.597656 C 1587.667969 84.597656 1579.269531 88.4375 1577.820312 95.144531 L 1576.949219 97.382812 C 1576.949219 97.382812 1585.617188 88.386719 1594.914062 87.796875 C 1605.054688 87.15625 1611.433594 89.394531 1611.433594 89.394531 C 1611.433594 89.394531 1591.15625 89.714844 1590.578125 96.746094 C 1590.578125 96.746094 1634.328125 92.59375 1676.90625 146.601562 C 1719.488281 200.609375 1705.011719 252.378906 1705.011719 252.378906 C 1705.011719 252.378906 1694.003906 284.019531 1665.320312 291.6875 C 1665.320312 291.6875 1679.226562 280.5 1679.226562 278.261719 C 1679.226562 278.261719 1657.210938 293.917969 1635.476562 296.796875 C 1613.742188 299.675781 1580.71875 278.902344 1571.742188 259.085938 L 1572.902344 266.753906 C 1572.902344 266.753906 1566.242188 260.367188 1565.664062 249.179688 C 1565.664062 249.179688 1562.183594 258.125 1555.234375 263.554688 L 1558.714844 252.6875 " clip-rule="nonzero"/></clipPath><clipPath id="121407d163"><path d="M 1448.371094 165 L 1555 165 L 1555 284.8125 L 1448.371094 284.8125 Z M 1448.371094 165 " clip-rule="nonzero"/></clipPath><clipPath id="c3f95b80de"><path d="M 1554.914062 224.824219 C 1554.914062 257.695312 1531.160156 284.339844 1501.855469 284.339844 C 1472.554688 284.339844 1448.800781 257.6875 1448.800781 224.824219 C 1448.800781 191.960938 1472.554688 165.316406 1501.855469 165.316406 C 1531.160156 165.316406 1554.914062 191.960938 1554.914062 224.824219 " clip-rule="nonzero"/></clipPath><clipPath id="3f122a05eb"><path d="M 1477.03125 184.171875 L 1547 184.171875 L 1547 261.484375 L 1477.03125 261.484375 Z M 1477.03125 184.171875 " clip-rule="nonzero"/></clipPath><clipPath id="29e5392ec1"><path d="M 1546.785156 222.894531 C 1546.785156 243.988281 1531.28125 261.097656 1512.15625 261.097656 C 1493.027344 261.097656 1477.523438 243.988281 1477.523438 222.894531 C 1477.523438 201.800781 1493.027344 184.695312 1512.15625 184.695312 C 1531.28125 184.695312 1546.785156 201.800781 1546.785156 222.894531 " clip-rule="nonzero"/></clipPath><clipPath id="7a9340dfa6"><path d="M 1488.363281 199 L 1535.6875 199 L 1535.6875 247 L 1488.363281 247 Z M 1488.363281 199 " clip-rule="nonzero"/></clipPath><clipPath id="68fa492c91"><path d="M 1535.140625 223.136719 C 1535.140625 236.3125 1524.773438 246.988281 1511.996094 246.988281 C 1499.21875 246.988281 1488.851562 236.3125 1488.851562 223.136719 C 1488.851562 209.957031 1499.21875 199.28125 1511.996094 199.28125 C 1524.773438 199.28125 1535.140625 209.957031 1535.140625 223.136719 " clip-rule="nonzero"/></clipPath><clipPath id="897c18b5f3"><path d="M 1523.6875 206.164062 L 1531.6875 206.164062 L 1531.6875 214.832031 L 1523.6875 214.832031 Z M 1523.6875 206.164062 " clip-rule="nonzero"/></clipPath><clipPath id="c03122bafe"><path d="M 1531.511719 210.296875 C 1531.511719 212.476562 1529.800781 214.246094 1527.679688 214.246094 C 1525.5625 214.246094 1523.851562 212.476562 1523.851562 210.296875 C 1523.851562 208.117188 1525.570312 206.347656 1527.679688 206.347656 C 1529.789062 206.347656 1531.511719 208.117188 1531.511719 210.296875 " clip-rule="nonzero"/></clipPath><clipPath id="72abf618ce"><path d="M 1523.6875 206.164062 L 1531.6875 206.164062 L 1531.6875 214.832031 L 1523.6875 214.832031 Z M 1523.6875 206.164062 " clip-rule="nonzero"/></clipPath><clipPath id="9b15b86579"><path d="M 1531.640625 210.296875 C 1531.640625 212.546875 1529.871094 214.367188 1527.679688 214.367188 C 1525.492188 214.367188 1523.722656 212.539062 1523.722656 210.296875 L 1523.84375 210.296875 L 1523.722656 210.296875 C 1523.722656 208.046875 1525.492188 206.230469 1527.679688 206.230469 L 1527.679688 206.347656 L 1527.679688 206.230469 C 1529.871094 206.230469 1531.640625 208.058594 1531.640625 210.296875 L 1531.519531 210.296875 L 1531.640625 210.296875 M 1531.390625 210.296875 C 1531.390625 208.1875 1529.730469 206.480469 1527.679688 206.480469 C 1525.632812 206.480469 1523.972656 208.1875 1523.972656 210.296875 C 1523.972656 212.40625 1525.632812 214.117188 1527.679688 214.117188 C 1529.730469 214.117188 1531.390625 212.40625 1531.390625 210.296875 " clip-rule="nonzero"/></clipPath><clipPath id="a45d4c410a"><path d="M 1505.691406 197 L 1519 197 L 1519 210.832031 L 1505.691406 210.832031 Z M 1505.691406 197 " clip-rule="nonzero"/></clipPath><clipPath id="55e378ab64"><path d="M 1518.511719 203.78125 C 1518.511719 207.378906 1515.683594 210.296875 1512.183594 210.296875 C 1508.683594 210.296875 1505.855469 207.378906 1505.855469 203.78125 C 1505.855469 200.179688 1508.683594 197.261719 1512.183594 197.261719 C 1515.683594 197.261719 1518.511719 200.179688 1518.511719 203.78125 " clip-rule="nonzero"/></clipPath><clipPath id="7a74bb8965"><path d="M 1505.691406 197 L 1519 197 L 1519 210.832031 L 1505.691406 210.832031 Z M 1505.691406 197 " clip-rule="nonzero"/></clipPath><clipPath id="95ba03dac1"><path d="M 1518.664062 203.78125 C 1518.664062 207.457031 1515.765625 210.449219 1512.195312 210.449219 C 1508.625 210.449219 1505.726562 207.457031 1505.726562 203.78125 L 1505.875 203.78125 L 1505.726562 203.78125 C 1505.726562 200.101562 1508.617188 197.109375 1512.195312 197.109375 L 1512.195312 197.261719 L 1512.195312 197.109375 C 1515.773438 197.109375 1518.664062 200.101562 1518.664062 203.78125 L 1518.511719 203.78125 L 1518.664062 203.78125 M 1518.363281 203.78125 C 1518.363281 200.261719 1515.59375 197.410156 1512.183594 197.410156 C 1508.773438 197.410156 1506.007812 200.261719 1506.007812 203.78125 C 1506.007812 207.296875 1508.773438 210.148438 1512.183594 210.148438 C 1515.59375 210.148438 1518.363281 207.296875 1518.363281 203.78125 " clip-rule="nonzero"/></clipPath><clipPath id="e4007316fd"><path d="M 1571.675781 159 L 1681.652344 159 L 1681.652344 282.816406 L 1571.675781 282.816406 Z M 1571.675781 159 " clip-rule="nonzero"/></clipPath><clipPath id="6e6c594fac"><path d="M 1681.644531 220.625 C 1681.644531 254.648438 1657.050781 282.230469 1626.71875 282.230469 C 1596.386719 282.230469 1571.789062 254.648438 1571.789062 220.625 C 1571.789062 186.601562 1596.386719 159.019531 1626.71875 159.019531 C 1657.050781 159.019531 1681.644531 186.601562 1681.644531 220.625 " clip-rule="nonzero"/></clipPath><clipPath id="f307cebf0d"><path d="M 1590.339844 185.503906 L 1662.988281 185.503906 L 1662.988281 264.820312 L 1590.339844 264.820312 Z M 1590.339844 185.503906 " clip-rule="nonzero"/></clipPath><clipPath id="bba90a8543"><path d="M 1662.570312 225.066406 C 1662.570312 246.910156 1646.523438 264.605469 1626.71875 264.605469 C 1606.914062 264.605469 1590.867188 246.898438 1590.867188 225.066406 C 1590.867188 203.230469 1606.914062 185.523438 1626.71875 185.523438 C 1646.523438 185.523438 1662.570312 203.230469 1662.570312 225.066406 " clip-rule="nonzero"/></clipPath><clipPath id="a37aa3a3a3"><path d="M 1604 201 L 1652.324219 201 L 1652.324219 250.820312 L 1604 250.820312 Z M 1604 201 " clip-rule="nonzero"/></clipPath><clipPath id="b3779f834e"><path d="M 1652.253906 225.703125 C 1652.253906 239.339844 1641.523438 250.398438 1628.289062 250.398438 C 1615.050781 250.398438 1604.324219 239.339844 1604.324219 225.703125 C 1604.324219 212.066406 1615.050781 201.011719 1628.289062 201.011719 C 1641.523438 201.011719 1652.253906 212.066406 1652.253906 225.703125 " clip-rule="nonzero"/></clipPath><clipPath id="a9c0474312"><path d="M 1615 206 L 1625 206 L 1625 215 L 1615 215 Z M 1615 206 " clip-rule="nonzero"/></clipPath><clipPath id="94bd312215"><path d="M 1621.558594 206.519531 C 1623.738281 207.308594 1624.878906 209.667969 1624.117188 211.777344 C 1623.359375 213.886719 1620.960938 214.96875 1618.78125 214.175781 C 1616.601562 213.386719 1615.449219 211.027344 1616.21875 208.917969 C 1616.992188 206.808594 1619.378906 205.730469 1621.558594 206.519531 " clip-rule="nonzero"/></clipPath><clipPath id="3e125236e8"><path d="M 1615 206 L 1625 206 L 1625 215 L 1615 215 Z M 1615 206 " clip-rule="nonzero"/></clipPath><clipPath id="1c30a52e5f"><path d="M 1621.597656 206.398438 C 1623.839844 207.207031 1625.019531 209.636719 1624.230469 211.816406 C 1623.4375 213.996094 1620.96875 215.105469 1618.730469 214.285156 L 1618.769531 214.167969 L 1618.730469 214.285156 C 1616.492188 213.476562 1615.3125 211.046875 1616.101562 208.867188 C 1616.890625 206.6875 1619.359375 205.578125 1621.597656 206.398438 L 1621.558594 206.519531 L 1621.597656 206.398438 M 1621.507812 206.628906 C 1619.390625 205.859375 1617.082031 206.910156 1616.332031 208.949219 L 1616.210938 208.910156 L 1616.332031 208.949219 C 1615.589844 210.996094 1616.691406 213.289062 1618.808594 214.046875 C 1620.929688 214.816406 1623.238281 213.765625 1623.988281 211.726562 L 1624.109375 211.765625 L 1623.988281 211.726562 C 1624.730469 209.679688 1623.628906 207.398438 1621.507812 206.628906 " clip-rule="nonzero"/></clipPath><clipPath id="243aa58e27"><path d="M 1627 196 L 1642 196 L 1642 211 L 1627 211 Z M 1627 196 " clip-rule="nonzero"/></clipPath><clipPath id="a235f29d42"><path d="M 1636.394531 196.972656 C 1639.996094 198.28125 1641.882812 202.167969 1640.613281 205.660156 C 1639.34375 209.148438 1635.394531 210.929688 1631.796875 209.617188 C 1628.199219 208.308594 1626.308594 204.417969 1627.578125 200.929688 C 1628.847656 197.441406 1632.796875 195.660156 1636.394531 196.972656 " clip-rule="nonzero"/></clipPath><clipPath id="af0fcc3da5"><path d="M 1627 196 L 1642 196 L 1642 211 L 1627 211 Z M 1627 196 " clip-rule="nonzero"/></clipPath><clipPath id="2fa4d80a35"><path d="M 1636.457031 196.820312 C 1640.136719 198.160156 1642.074219 202.128906 1640.773438 205.707031 L 1640.625 205.660156 L 1640.773438 205.707031 C 1639.476562 209.289062 1635.4375 211.097656 1631.757812 209.757812 C 1628.078125 208.417969 1626.136719 204.449219 1627.4375 200.871094 C 1628.738281 197.289062 1632.777344 195.480469 1636.457031 196.820312 M 1636.347656 197.121094 L 1636.394531 196.972656 L 1636.347656 197.121094 C 1632.828125 195.839844 1628.96875 197.582031 1627.738281 200.988281 L 1627.589844 200.941406 L 1627.738281 200.988281 C 1626.5 204.398438 1628.347656 208.199219 1631.867188 209.476562 L 1631.816406 209.628906 L 1631.867188 209.476562 C 1635.386719 210.757812 1639.246094 209.019531 1640.476562 205.609375 C 1641.714844 202.199219 1639.863281 198.402344 1636.347656 197.121094 " clip-rule="nonzero"/></clipPath><clipPath id="005a1cbaad"><path d="M 1545.015625 250 L 1583 250 L 1583 298 L 1545.015625 298 Z M 1545.015625 250 " clip-rule="nonzero"/></clipPath><clipPath id="27389142c5"><path d="M 1558.992188 252.089844 L 1546.015625 266.933594 C 1545.195312 267.875 1545.027344 269.144531 1545.578125 270.222656 L 1558.132812 294.738281 C 1560.054688 298.476562 1565.34375 298.609375 1567.441406 294.976562 L 1582.117188 269.585938 C 1582.917969 268.195312 1582.636719 266.515625 1581.417969 265.386719 L 1566.582031 251.6875 C 1564.390625 249.667969 1560.964844 249.847656 1558.992188 252.097656 " clip-rule="nonzero"/></clipPath><clipPath id="0587e74e60"><path d="M 1450.371094 109 L 1526.355469 109 L 1526.355469 154.175781 L 1450.371094 154.175781 Z M 1450.371094 109 " clip-rule="nonzero"/></clipPath><clipPath id="f620ba3b40"><path d="M 1476.601562 154.171875 C 1461.796875 136.816406 1450.570312 109.261719 1450.570312 109.261719 C 1459.648438 116.269531 1474.054688 119.289062 1502.957031 123.417969 C 1509.816406 124.398438 1517.492188 125.4375 1526.101562 126.617188 L 1476.601562 154.171875 " clip-rule="nonzero"/></clipPath><clipPath id="bfc1d2d82f"><path d="M 1607.667969 105 L 1683.652344 105 L 1683.652344 150 L 1607.667969 150 Z M 1607.667969 105 " clip-rule="nonzero"/></clipPath><clipPath id="c3cf61a0a5"><path d="M 1657.472656 149.953125 C 1672.277344 132.597656 1683.503906 105.042969 1683.503906 105.042969 C 1674.425781 112.050781 1660.019531 115.070312 1631.117188 119.199219 C 1624.257812 120.179688 1616.582031 121.21875 1607.972656 122.398438 L 1657.472656 149.953125 " clip-rule="nonzero"/></clipPath><clipPath id="7e4df54440"><path d="M 1571 144 L 1677.652344 144 L 1677.652344 222 L 1571 222 Z M 1571 144 " clip-rule="nonzero"/></clipPath><clipPath id="c94beba1a0"><path d="M 1571.789062 221.695312 C 1571.789062 221.695312 1567.851562 170.695312 1595.925781 153.261719 C 1624 135.824219 1645.363281 150.683594 1645.363281 150.683594 C 1645.363281 150.683594 1658.289062 160.160156 1677.476562 149.921875 C 1677.476562 149.921875 1668.820312 173.855469 1643.09375 166.769531 C 1619.078125 160.160156 1603.484375 168.289062 1603.484375 168.289062 C 1603.484375 168.289062 1584.058594 178.875 1571.789062 221.695312 " clip-rule="nonzero"/></clipPath><clipPath id="16b26a49a3"><path d="M 1450 149 L 1556 149 L 1556 227.492188 L 1450 227.492188 Z M 1450 149 " clip-rule="nonzero"/></clipPath><clipPath id="7bd404b488"><path d="M 1554.914062 227.144531 C 1554.914062 227.144531 1559.972656 175.816406 1531.910156 158.390625 C 1503.847656 140.964844 1482.472656 155.808594 1482.472656 155.808594 C 1482.472656 155.808594 1469.542969 165.289062 1450.359375 155.050781 C 1450.359375 155.050781 1459.015625 178.984375 1484.742188 171.898438 C 1508.753906 165.289062 1524.351562 173.417969 1524.351562 173.417969 C 1524.351562 173.417969 1542.648438 184.332031 1554.925781 227.144531 " clip-rule="nonzero"/></clipPath><clipPath id="5ef28c32e0"><path d="M 1489.03125 450 L 1547 450 L 1547 497.429688 L 1489.03125 497.429688 Z M 1489.03125 450 " clip-rule="nonzero"/></clipPath><clipPath id="4e1061f56c"><path d="M 1546.476562 474.085938 C 1546.476562 480.925781 1542.859375 484.664062 1537.109375 488.921875 C 1532.050781 492.664062 1525.339844 497.351562 1517.972656 497.351562 C 1511.664062 497.351562 1505.847656 493.273438 1501.128906 490.441406 C 1494.058594 486.203125 1489.46875 481.796875 1489.46875 474.085938 C 1489.46875 466.957031 1493.390625 458.171875 1499.578125 453.902344 C 1504.546875 450.472656 1510.964844 450.8125 1517.984375 450.8125 C 1525.851562 450.8125 1532.980469 448.59375 1538.136719 452.800781 C 1543.296875 457.011719 1546.488281 467.648438 1546.488281 474.078125 " clip-rule="nonzero"/></clipPath><clipPath id="10b9fc5202"><path d="M 1588.339844 448 L 1645.660156 448 L 1645.660156 496 L 1588.339844 496 Z M 1588.339844 448 " clip-rule="nonzero"/></clipPath><clipPath id="32c34026cc"><path d="M 1645.535156 472.335938 C 1645.535156 479.175781 1641.914062 482.914062 1636.15625 487.175781 C 1631.097656 490.914062 1624.390625 495.601562 1617.019531 495.601562 C 1610.722656 495.601562 1604.894531 491.523438 1600.175781 488.695312 C 1593.105469 484.453125 1588.515625 480.046875 1588.515625 472.335938 C 1588.515625 465.210938 1592.4375 456.421875 1598.613281 452.160156 C 1603.582031 448.734375 1610 449.074219 1617.019531 449.074219 C 1624.886719 449.074219 1632.015625 446.851562 1637.175781 451.0625 C 1642.335938 455.269531 1645.523438 465.910156 1645.523438 472.335938 " clip-rule="nonzero"/></clipPath></defs><g clip-path="url(#becfd95e91)"><g clip-path="url(#c0fb529f25)"><path fill="#ffffff" d="M 41.769531 81.816406 L 271.714844 81.816406 L 271.714844 428.402344 L 41.769531 428.402344 Z M 41.769531 81.816406 " fill-opacity="1" fill-rule="nonzero"/></g></g><g clip-path="url(#2c1c93b098)"><g clip-path="url(#227f23e87e)"><path fill="#ffffff" d="M 311.46875 171.453125 L 515.421875 171.453125 L 515.421875 428.726562 L 311.46875 428.726562 Z M 311.46875 171.453125 " fill-opacity="1" fill-rule="nonzero"/></g></g><g clip-path="url(#3645f1e258)"><g clip-path="url(#0ee44126f8)"><path fill="#ffffff" d="M 541.109375 171.453125 L 746.394531 171.453125 L 746.394531 422.058594 L 541.109375 422.058594 Z M 541.109375 171.453125 " fill-opacity="1" fill-rule="nonzero"/></g></g><g clip-path="url(#a27bd5e109)"><g clip-path="url(#2ba8597a7a)"><path fill="#ffffff" d="M 775.425781 56.34375 L 904.0625 56.34375 L 904.0625 422.257812 L 775.425781 422.257812 Z M 775.425781 56.34375 " fill-opacity="1" fill-rule="nonzero"/></g></g><g clip-path="url(#ad280fe1a3)"><g clip-path="url(#794c64017c)"><path fill="#ffffff" d="M 917.984375 171.453125 L 1173.925781 171.453125 L 1173.925781 507.375 L 917.984375 507.375 Z M 917.984375 171.453125 " fill-opacity="1" fill-rule="nonzero"/></g></g><g clip-path="url(#7204d519e5)"><g clip-path="url(#0b10c790f9)"><path fill="#ffffff" d="M 1187.488281 100.6875 L 1356.117188 100.6875 L 1356.117188 428.613281 L 1187.488281 428.613281 Z M 1187.488281 100.6875 " fill-opacity="1" fill-rule="nonzero"/></g></g><g clip-path="url(#0c6d899e14)"><g clip-path="url(#92e0b3b3bd)"><path fill="#ffffff" d="M 1351.0625 7.542969 L 1962.921875 7.542969 L 1962.921875 502.761719 L 1351.0625 502.761719 Z M 1351.0625 7.542969 " fill-opacity="1" fill-rule="nonzero"/></g></g><g clip-path="url(#0ed3b63287)"><g clip-path="url(#97461d7297)"><path fill="#fdb636" d="M 1351.0625 7.542969 L 1962.921875 7.542969 L 1962.921875 502.761719 L 1351.0625 502.761719 Z M 1351.0625 7.542969 " fill-opacity="1" fill-rule="nonzero"/></g></g><g clip-path="url(#e3b6d77ad7)"><g clip-path="url(#f21f2e64c6)"><path fill="#fdb636" d="M 1351.0625 7.542969 L 1962.921875 7.542969 L 1962.921875 502.761719 L 1351.0625 502.761719 Z M 1351.0625 7.542969 " fill-opacity="1" fill-rule="nonzero"/></g></g><g clip-path="url(#e9c827d964)"><g clip-path="url(#5c5158cc10)"><path fill="#ffffff" d="M 1351.0625 7.542969 L 1962.921875 7.542969 L 1962.921875 502.761719 L 1351.0625 502.761719 Z M 1351.0625 7.542969 " fill-opacity="1" fill-rule="nonzero"/></g></g><g clip-path="url(#18d4037fd6)"><g clip-path="url(#13c7de3da2)"><path fill="#fdb636" d="M 1351.0625 7.542969 L 1962.921875 7.542969 L 1962.921875 502.761719 L 1351.0625 502.761719 Z M 1351.0625 7.542969 " fill-opacity="1" fill-rule="nonzero"/></g></g><g clip-path="url(#fd3ec5fa3e)"><g clip-path="url(#1204bf2a88)"><path fill="#d9d9d9" d="M 1351.0625 7.542969 L 1962.921875 7.542969 L 1962.921875 502.761719 L 1351.0625 502.761719 Z M 1351.0625 7.542969 " fill-opacity="1" fill-rule="nonzero"/></g></g><g clip-path="url(#b3013219c1)"><g clip-path="url(#371e881f25)"><path fill="#ffffff" d="M 1351.0625 7.542969 L 1962.921875 7.542969 L 1962.921875 502.761719 L 1351.0625 502.761719 Z M 1351.0625 7.542969 " fill-opacity="1" fill-rule="nonzero"/></g></g><g clip-path="url(#2d9a616419)"><g clip-path="url(#33ac4165c9)"><path fill="#ffffff" d="M 1351.0625 7.542969 L 1962.921875 7.542969 L 1962.921875 502.761719 L 1351.0625 502.761719 Z M 1351.0625 7.542969 " fill-opacity="1" fill-rule="nonzero"/></g></g><g clip-path="url(#0ac51eed1c)"><g clip-path="url(#f32445aae2)"><path fill="#d9d9d9" d="M 1351.0625 7.542969 L 1962.921875 7.542969 L 1962.921875 502.761719 L 1351.0625 502.761719 Z M 1351.0625 7.542969 " fill-opacity="1" fill-rule="nonzero"/></g></g><g clip-path="url(#121407d163)"><g clip-path="url(#c3f95b80de)"><path fill="#ffffff" d="M 1351.0625 7.542969 L 1962.921875 7.542969 L 1962.921875 502.761719 L 1351.0625 502.761719 Z M 1351.0625 7.542969 " fill-opacity="1" fill-rule="nonzero"/></g></g><g clip-path="url(#3f122a05eb)"><g clip-path="url(#29e5392ec1)"><path fill="#1e7faf" d="M 1351.0625 7.542969 L 1962.921875 7.542969 L 1962.921875 502.761719 L 1351.0625 502.761719 Z M 1351.0625 7.542969 " fill-opacity="1" fill-rule="nonzero"/></g></g><g clip-path="url(#7a9340dfa6)"><g clip-path="url(#68fa492c91)"><path fill="#2a3955" d="M 1351.0625 7.542969 L 1962.921875 7.542969 L 1962.921875 502.761719 L 1351.0625 502.761719 Z M 1351.0625 7.542969 " fill-opacity="1" fill-rule="nonzero"/></g></g><g clip-path="url(#897c18b5f3)"><g clip-path="url(#c03122bafe)"><path fill="#ffffff" d="M 1351.0625 7.542969 L 1962.921875 7.542969 L 1962.921875 502.761719 L 1351.0625 502.761719 Z M 1351.0625 7.542969 " fill-opacity="1" fill-rule="nonzero"/></g></g><g clip-path="url(#72abf618ce)"><g clip-path="url(#9b15b86579)"><path fill="#1d1d1b" d="M 1351.0625 7.542969 L 1962.921875 7.542969 L 1962.921875 502.761719 L 1351.0625 502.761719 Z M 1351.0625 7.542969 " fill-opacity="1" fill-rule="nonzero"/></g></g><g clip-path="url(#a45d4c410a)"><g clip-path="url(#55e378ab64)"><path fill="#ffffff" d="M 1351.0625 7.542969 L 1962.921875 7.542969 L 1962.921875 502.761719 L 1351.0625 502.761719 Z M 1351.0625 7.542969 " fill-opacity="1" fill-rule="nonzero"/></g></g><g clip-path="url(#7a74bb8965)"><g clip-path="url(#95ba03dac1)"><path fill="#1d1d1b" d="M 1351.0625 7.542969 L 1962.921875 7.542969 L 1962.921875 502.761719 L 1351.0625 502.761719 Z M 1351.0625 7.542969 " fill-opacity="1" fill-rule="nonzero"/></g></g><g clip-path="url(#e4007316fd)"><g clip-path="url(#6e6c594fac)"><path fill="#ffffff" d="M 1351.0625 7.542969 L 1962.921875 7.542969 L 1962.921875 502.761719 L 1351.0625 502.761719 Z M 1351.0625 7.542969 " fill-opacity="1" fill-rule="nonzero"/></g></g><g clip-path="url(#f307cebf0d)"><g clip-path="url(#bba90a8543)"><path fill="#1e7faf" d="M 1351.0625 7.542969 L 1962.921875 7.542969 L 1962.921875 502.761719 L 1351.0625 502.761719 Z M 1351.0625 7.542969 " fill-opacity="1" fill-rule="nonzero"/></g></g><g clip-path="url(#a37aa3a3a3)"><g clip-path="url(#b3779f834e)"><path fill="#2a3955" d="M 1351.0625 7.542969 L 1962.921875 7.542969 L 1962.921875 502.761719 L 1351.0625 502.761719 Z M 1351.0625 7.542969 " fill-opacity="1" fill-rule="nonzero"/></g></g><g clip-path="url(#a9c0474312)"><g clip-path="url(#94bd312215)"><path fill="#ffffff" d="M 1351.0625 7.542969 L 1962.921875 7.542969 L 1962.921875 502.761719 L 1351.0625 502.761719 Z M 1351.0625 7.542969 " fill-opacity="1" fill-rule="nonzero"/></g></g><g clip-path="url(#3e125236e8)"><g clip-path="url(#1c30a52e5f)"><path fill="#1d1d1b" d="M 1351.0625 7.542969 L 1962.921875 7.542969 L 1962.921875 502.761719 L 1351.0625 502.761719 Z M 1351.0625 7.542969 " fill-opacity="1" fill-rule="nonzero"/></g></g><g clip-path="url(#243aa58e27)"><g clip-path="url(#a235f29d42)"><path fill="#ffffff" d="M 1351.0625 7.542969 L 1962.921875 7.542969 L 1962.921875 502.761719 L 1351.0625 502.761719 Z M 1351.0625 7.542969 " fill-opacity="1" fill-rule="nonzero"/></g></g><g clip-path="url(#af0fcc3da5)"><g clip-path="url(#2fa4d80a35)"><path fill="#1d1d1b" d="M 1351.0625 7.542969 L 1962.921875 7.542969 L 1962.921875 502.761719 L 1351.0625 502.761719 Z M 1351.0625 7.542969 " fill-opacity="1" fill-rule="nonzero"/></g></g><g clip-path="url(#005a1cbaad)"><g clip-path="url(#27389142c5)"><path fill="#fdb636" d="M 1351.0625 7.542969 L 1962.921875 7.542969 L 1962.921875 502.761719 L 1351.0625 502.761719 Z M 1351.0625 7.542969 " fill-opacity="1" fill-rule="nonzero"/></g></g><g clip-path="url(#0587e74e60)"><g clip-path="url(#f620ba3b40)"><path fill="#fdb636" d="M 1351.0625 7.542969 L 1962.921875 7.542969 L 1962.921875 502.761719 L 1351.0625 502.761719 Z M 1351.0625 7.542969 " fill-opacity="1" fill-rule="nonzero"/></g></g><g clip-path="url(#bfc1d2d82f)"><g clip-path="url(#c3cf61a0a5)"><path fill="#fdb636" d="M 1351.0625 7.542969 L 1962.921875 7.542969 L 1962.921875 502.761719 L 1351.0625 502.761719 Z M 1351.0625 7.542969 " fill-opacity="1" fill-rule="nonzero"/></g></g><g clip-path="url(#7e4df54440)"><g clip-path="url(#c94beba1a0)"><path fill="#2a3955" d="M 1351.0625 7.542969 L 1962.921875 7.542969 L 1962.921875 502.761719 L 1351.0625 502.761719 Z M 1351.0625 7.542969 " fill-opacity="1" fill-rule="nonzero"/></g></g><g clip-path="url(#16b26a49a3)"><g clip-path="url(#7bd404b488)"><path fill="#2a3955" d="M 1351.0625 7.542969 L 1962.921875 7.542969 L 1962.921875 502.761719 L 1351.0625 502.761719 Z M 1351.0625 7.542969 " fill-opacity="1" fill-rule="nonzero"/></g></g><g clip-path="url(#5ef28c32e0)"><g clip-path="url(#4e1061f56c)"><path fill="#ffffff" d="M 1351.0625 7.542969 L 1962.921875 7.542969 L 1962.921875 502.761719 L 1351.0625 502.761719 Z M 1351.0625 7.542969 " fill-opacity="1" fill-rule="nonzero"/></g></g><g clip-path="url(#10b9fc5202)"><g clip-path="url(#32c34026cc)"><path fill="#ffffff" d="M 1351.0625 7.542969 L 1962.921875 7.542969 L 1962.921875 502.761719 L 1351.0625 502.761719 Z M 1351.0625 7.542969 " fill-opacity="1" fill-rule="nonzero"/></g></g></svg>