<svg xmlns="http://www.w3.org/2000/svg" version="1.1" xmlns:xlink="http://www.w3.org/1999/xlink" xmlns:svgjs="http://svgjs.dev/svgjs" viewBox="0 0 6.517817406517955 7.121194384902852"><g transform="matrix(1,0,0,1,0.5676245235714776,5.109233923831374)"><g><path d=" M 0.542724609375 0.18603515625 L 0.526611328125 0.18603515625 Q 0.520751953125 0.169189453125 0.5079345703125 0.14794921875 Q 0.4951171875 0.126708984375 0.4742431640625 0.1080322265625 Q 0.453369140625 0.08935546875 0.4237060546875 0.076904296875 Q 0.39404296875 0.064453125 0.353759765625 0.064453125 Q 0.31787109375 0.064453125 0.2900390625 0.075439453125 Q 0.26220703125 0.08642578125 0.2435302734375 0.106201171875 Q 0.224853515625 0.1259765625 0.21533203125 0.153076171875 Q 0.205810546875 0.18017578125 0.205810546875 0.213134765625 Q 0.205810546875 0.265869140625 0.2354736328125 0.3138427734375 Q 0.26513671875 0.36181640625 0.309814453125 0.40869140625 Q 0.3544921875 0.45556640625 0.406494140625 0.50244140625 Q 0.45849609375 0.54931640625 0.503173828125 0.599853515625 Q 0.5478515625 0.650390625 0.5775146484375 0.7056884765625 Q 0.607177734375 0.760986328125 0.607177734375 0.82470703125 Q 0.607177734375 0.872314453125 0.5906982421875 0.9202880859375 Q 0.57421875 0.96826171875 0.539794921875 1.00634765625 Q 0.50537109375 1.04443359375 0.451171875 1.0682373046875 Q 0.39697265625 1.092041015625 0.322265625 1.092041015625 Q 0.280517578125 1.092041015625 0.2427978515625 1.0843505859375 Q 0.205078125 1.07666015625 0.1732177734375 1.0653076171875 Q 0.141357421875 1.053955078125 0.1160888671875 1.040771484375 Q 0.0908203125 1.027587890625 0.07470703125 1.0166015625 L 0.091552734375 0.854736328125 L 0.10986328125 0.854736328125 Q 0.117919921875 0.88916015625 0.13623046875 0.9202880859375 Q 0.154541015625 0.951416015625 0.1812744140625 0.9752197265625 Q 0.2080078125 0.9990234375 0.242431640625 1.0133056640625 Q 0.27685546875 1.027587890625 0.31787109375 1.027587890625 Q 0.355224609375 1.027587890625 0.3848876953125 1.0162353515625 Q 0.41455078125 1.0048828125 0.435791015625 0.9847412109375 Q 0.45703125 0.964599609375 0.4683837890625 0.936767578125 Q 0.479736328125 0.908935546875 0.479736328125 0.8759765625 Q 0.479736328125 0.829833984375 0.462890625 0.7906494140625 Q 0.446044921875 0.75146484375 0.4185791015625 0.71630859375 Q 0.39111328125 0.68115234375 0.3563232421875 0.648193359375 Q 0.321533203125 0.615234375 0.284912109375 0.5819091796875 Q 0.248291015625 0.548583984375 0.2135009765625 0.513427734375 Q 0.1787109375 0.478271484375 0.1512451171875 0.4383544921875 Q 0.123779296875 0.3984375 0.10693359375 0.3526611328125 Q 0.090087890625 0.306884765625 0.090087890625 0.251953125 Q 0.090087890625 0.194091796875 0.1124267578125 0.1475830078125 Q 0.134765625 0.10107421875 0.1717529296875 0.068115234375 Q 0.208740234375 0.03515625 0.255615234375 0.017578125 Q 0.302490234375 0 0.352294921875 0 Q 0.388916015625 0 0.419677734375 0.005859375 Q 0.450439453125 0.01171875 0.4749755859375 0.019775390625 Q 0.49951171875 0.02783203125 0.517822265625 0.035888671875 Q 0.5361328125 0.0439453125 0.5478515625 0.049072265625 L 0.542724609375 0.18603515625 M 1.411376953125 0.913330078125 L 1.357177734375 1.043701171875 Q 1.33740234375 1.052490234375 1.311767578125 1.059814453125 Q 1.2861328125 1.067138671875 1.2586669921875 1.072265625 Q 1.231201171875 1.077392578125 1.203369140625 1.0799560546875 Q 1.175537109375 1.08251953125 1.150634765625 1.08251953125 Q 1.06201171875 1.08251953125 0.9869384765625001 1.0565185546875 Q 0.9118652343750001 1.030517578125 0.8572998046875001 0.980712890625 Q 0.8027343750000001 0.930908203125 0.7719726562500001 0.8583984375 Q 0.7412109375000001 0.785888671875 0.7412109375000001 0.69287109375 Q 0.7412109375000001 0.610107421875 0.7730712890625001 0.5394287109375 Q 0.8049316406250001 0.46875 0.8616943359375001 0.416748046875 Q 0.9184570312500001 0.36474609375 0.9953613281250001 0.33544921875 Q 1.072265625 0.30615234375 1.162353515625 0.30615234375 Q 1.203369140625 0.30615234375 1.250244140625 0.3131103515625 Q 1.297119140625 0.320068359375 1.333740234375 0.3310546875 L 1.3857421875 0.45556640625 L 1.376953125 0.460693359375 Q 1.358642578125 0.43798828125 1.3333740234375 0.4193115234375 Q 1.30810546875 0.400634765625 1.2777099609375 0.387451171875 Q 1.247314453125 0.374267578125 1.213623046875 0.366943359375 Q 1.179931640625 0.359619140625 1.144775390625 0.359619140625 Q 1.087646484375 0.359619140625 1.040771484375 0.3797607421875 Q 0.9938964843750001 0.39990234375 0.9602050781250001 0.43798828125 Q 0.9265136718750001 0.47607421875 0.9078369140625001 0.5313720703125 Q 0.8891601562500001 0.586669921875 0.8891601562500001 0.656982421875 Q 0.8891601562500001 0.736083984375 0.9071044921875001 0.80419921875 Q 0.9250488281250001 0.872314453125 0.9605712890625001 0.9224853515625 Q 0.9960937500000001 0.97265625 1.0499267578125 1.0008544921875 Q 1.103759765625 1.029052734375 1.17626953125 1.029052734375 Q 1.2099609375 1.029052734375 1.2432861328125 1.0206298828125 Q 1.276611328125 1.01220703125 1.3062744140625 0.9964599609375 Q 1.3359375 0.980712890625 1.36083984375 0.958740234375 Q 1.3857421875 0.936767578125 1.402587890625 0.908935546875 L 1.411376953125 0.913330078125 M 1.5673828125 0.605712890625 Q 1.5673828125 0.54345703125 1.5655517578125 0.4969482421875 Q 1.563720703125 0.450439453125 1.5611572265625 0.416748046875 Q 1.55859375 0.383056640625 1.5545654296875 0.3603515625 Q 1.550537109375 0.337646484375 1.546142578125 0.322265625 L 1.546142578125 0.3193359375 L 1.71533203125 0.3193359375 L 1.71533203125 0.322265625 Q 1.70947265625 0.339111328125 1.7054443359375 0.36328125 Q 1.701416015625 0.387451171875 1.69921875 0.425537109375 Q 1.726318359375 0.40283203125 1.755615234375 0.380859375 Q 1.784912109375 0.35888671875 1.815673828125 0.342041015625 Q 1.846435546875 0.3251953125 1.8782958984375 0.31494140625 Q 1.91015625 0.3046875 1.9423828125 0.3046875 Q 1.962158203125 0.3046875 1.976806640625 0.3065185546875 Q 1.991455078125 0.308349609375 2.003173828125 0.3116455078125 Q 2.014892578125 0.31494140625 2.0244140625 0.3189697265625 Q 2.033935546875 0.322998046875 2.042724609375 0.32666015625 L 2.0068359375 0.466552734375 L 1.994384765625 0.463623046875 Q 1.985595703125 0.431396484375 1.96142578125 0.4119873046875 Q 1.937255859375 0.392578125 1.8955078125 0.392578125 Q 1.872802734375 0.392578125 1.847900390625 0.400634765625 Q 1.822998046875 0.40869140625 1.79736328125 0.4229736328125 Q 1.771728515625 0.437255859375 1.74609375 0.4559326171875 Q 1.720458984375 0.474609375 1.6962890625 0.4951171875 Q 1.69482421875 0.516357421875 1.69482421875 0.541259765625 Q 1.69482421875 0.566162109375 1.69482421875 0.593994140625 L 1.69482421875 0.782958984375 Q 1.69482421875 0.84521484375 1.6962890625 0.8917236328125 Q 1.69775390625 0.938232421875 1.70068359375 0.971923828125 Q 1.70361328125 1.005615234375 1.707275390625 1.0283203125 Q 1.7109375 1.051025390625 1.71533203125 1.06640625 L 1.71533203125 1.0693359375 L 1.546142578125 1.0693359375 L 1.546142578125 1.06640625 Q 1.550537109375 1.051025390625 1.5545654296875 1.0283203125 Q 1.55859375 1.005615234375 1.5611572265625 0.971923828125 Q 1.563720703125 0.938232421875 1.5655517578125 0.8917236328125 Q 1.5673828125 0.84521484375 1.5673828125 0.782958984375 L 1.5673828125 0.605712890625 M 2.167236328125 0.605712890625 Q 2.167236328125 0.54345703125 2.1654052734375 0.4969482421875 Q 2.16357421875 0.450439453125 2.1610107421875 0.416748046875 Q 2.158447265625 0.383056640625 2.1544189453125 0.3603515625 Q 2.150390625 0.337646484375 2.14599609375 0.322265625 L 2.14599609375 0.3193359375 L 2.315185546875 0.3193359375 L 2.315185546875 0.322265625 Q 2.310791015625 0.337646484375 2.30712890625 0.3603515625 Q 2.303466796875 0.383056640625 2.300537109375 0.416748046875 Q 2.297607421875 0.450439453125 2.296142578125 0.4969482421875 Q 2.294677734375 0.54345703125 2.294677734375 0.605712890625 L 2.294677734375 0.782958984375 Q 2.294677734375 0.84521484375 2.296142578125 0.8917236328125 Q 2.297607421875 0.938232421875 2.300537109375 0.971923828125 Q 2.303466796875 1.005615234375 2.30712890625 1.0283203125 Q 2.310791015625 1.051025390625 2.315185546875 1.06640625 L 2.315185546875 1.0693359375 L 2.14599609375 1.0693359375 L 2.14599609375 1.06640625 Q 2.150390625 1.051025390625 2.1544189453125 1.0283203125 Q 2.158447265625 1.005615234375 2.1610107421875 0.971923828125 Q 2.16357421875 0.938232421875 2.1654052734375 0.8917236328125 Q 2.167236328125 0.84521484375 2.167236328125 0.782958984375 L 2.167236328125 0.605712890625 M 2.15185546875 0.097412109375 Q 2.15185546875 0.081298828125 2.1580810546875 0.0670166015625 Q 2.164306640625 0.052734375 2.174560546875 0.0421142578125 Q 2.184814453125 0.031494140625 2.1990966796875 0.0252685546875 Q 2.21337890625 0.01904296875 2.230224609375 0.01904296875 Q 2.2470703125 0.01904296875 2.2613525390625 0.0252685546875 Q 2.275634765625 0.031494140625 2.2862548828125 0.0421142578125 Q 2.296875 0.052734375 2.3031005859375 0.0670166015625 Q 2.309326171875 0.081298828125 2.309326171875 0.097412109375 Q 2.309326171875 0.131103515625 2.28662109375 0.15380859375 Q 2.263916015625 0.176513671875 2.230224609375 0.176513671875 Q 2.21337890625 0.176513671875 2.1990966796875 0.1702880859375 Q 2.184814453125 0.1640625 2.174560546875 0.1534423828125 Q 2.164306640625 0.142822265625 2.1580810546875 0.1285400390625 Q 2.15185546875 0.1142578125 2.15185546875 0.097412109375 M 2.531982421875 0.591064453125 Q 2.531982421875 0.52880859375 2.5301513671875 0.4822998046875 Q 2.5283203125 0.435791015625 2.5257568359375 0.402099609375 Q 2.523193359375 0.368408203125 2.5191650390625 0.345703125 Q 2.51513671875 0.322998046875 2.5107421875 0.3076171875 L 2.5107421875 0.3046875 L 2.679931640625 0.3046875 L 2.679931640625 0.3076171875 Q 2.67626953125 0.318603515625 2.67333984375 0.33251953125 Q 2.67041015625 0.346435546875 2.668212890625 0.364013671875 Q 2.71142578125 0.339111328125 2.7637939453125 0.3218994140625 Q 2.816162109375 0.3046875 2.8798828125 0.3046875 Q 2.961181640625 0.3046875 3.0281982421875 0.3321533203125 Q 3.09521484375 0.359619140625 3.1431884765625 0.410888671875 Q 3.191162109375 0.462158203125 3.217529296875 0.53466796875 Q 3.243896484375 0.607177734375 3.243896484375 0.697265625 Q 3.243896484375 0.772705078125 3.2178955078125 0.84228515625 Q 3.19189453125 0.911865234375 3.1417236328125 0.96533203125 Q 3.091552734375 1.018798828125 3.018310546875 1.0506591796875 Q 2.945068359375 1.08251953125 2.849853515625 1.08251953125 Q 2.792724609375 1.08251953125 2.745849609375 1.07373046875 Q 2.698974609375 1.06494140625 2.659423828125 1.051025390625 L 2.659423828125 1.157958984375 Q 2.659423828125 1.22021484375 2.660888671875 1.2667236328125 Q 2.662353515625 1.313232421875 2.665283203125 1.346923828125 Q 2.668212890625 1.380615234375 2.671875 1.4033203125 Q 2.675537109375 1.426025390625 2.679931640625 1.44140625 L 2.679931640625 1.4443359375 L 2.5107421875 1.4443359375 L 2.5107421875 1.44140625 Q 2.51513671875 1.426025390625 2.5191650390625 1.4033203125 Q 2.523193359375 1.380615234375 2.5257568359375 1.346923828125 Q 2.5283203125 1.313232421875 2.5301513671875 1.2667236328125 Q 2.531982421875 1.22021484375 2.531982421875 1.157958984375 L 2.531982421875 0.591064453125 M 2.854248046875 0.359619140625 Q 2.829345703125 0.359619140625 2.8033447265625 0.3658447265625 Q 2.77734375 0.3720703125 2.7520751953125 0.3834228515625 Q 2.726806640625 0.394775390625 2.7037353515625 0.4119873046875 Q 2.6806640625 0.42919921875 2.662353515625 0.451171875 Q 2.660888671875 0.47900390625 2.66015625 0.51416015625 Q 2.659423828125 0.54931640625 2.659423828125 0.591064453125 L 2.659423828125 0.974853515625 Q 2.674072265625 0.98583984375 2.6923828125 0.995361328125 Q 2.710693359375 1.0048828125 2.7337646484375 1.0125732421875 Q 2.7568359375 1.020263671875 2.7857666015625 1.024658203125 Q 2.814697265625 1.029052734375 2.849853515625 1.029052734375 Q 2.906982421875 1.029052734375 2.953125 1.008544921875 Q 2.999267578125 0.988037109375 3.0311279296875 0.94921875 Q 3.06298828125 0.910400390625 3.0802001953125 0.854736328125 Q 3.097412109375 0.799072265625 3.097412109375 0.728759765625 Q 3.097412109375 0.649658203125 3.084228515625 0.5819091796875 Q 3.071044921875 0.51416015625 3.0421142578125 0.4647216796875 Q 3.01318359375 0.415283203125 2.967041015625 0.387451171875 Q 2.9208984375 0.359619140625 2.854248046875 0.359619140625 M 3.680419921875 1.026123046875 Q 3.702392578125 1.026123046875 3.7239990234375 1.01806640625 Q 3.74560546875 1.010009765625 3.7657470703125 0.99609375 Q 3.785888671875 0.982177734375 3.8045654296875 0.9642333984375 Q 3.8232421875 0.9462890625 3.83935546875 0.926513671875 L 3.8466796875 0.93017578125 L 3.799072265625 1.048095703125 Q 3.790283203125 1.052490234375 3.7774658203125 1.0587158203125 Q 3.7646484375 1.06494140625 3.7467041015625 1.0704345703125 Q 3.728759765625 1.075927734375 3.70458984375 1.0799560546875 Q 3.680419921875 1.083984375 3.6474609375 1.083984375 Q 3.54931640625 1.083984375 3.4947509765625 1.0308837890625 Q 3.440185546875 0.977783203125 3.440185546875 0.864990234375 L 3.440185546875 0.37646484375 L 3.317138671875 0.380859375 L 3.317138671875 0.31640625 Q 3.33984375 0.31787109375 3.371337890625 0.318603515625 Q 3.40283203125 0.3193359375 3.440185546875 0.3193359375 Q 3.439453125 0.267333984375 3.4376220703125 0.2274169921875 Q 3.435791015625 0.1875 3.4332275390625 0.1578369140625 Q 3.4306640625 0.128173828125 3.427001953125 0.107666015625 Q 3.42333984375 0.087158203125 3.419677734375 0.0732421875 L 3.419677734375 0.0703125 L 3.5888671875 0.0703125 L 3.5888671875 0.0732421875 Q 3.58447265625 0.087158203125 3.580810546875 0.107666015625 Q 3.5771484375 0.128173828125 3.5745849609375 0.157470703125 Q 3.572021484375 0.186767578125 3.5701904296875 0.2266845703125 Q 3.568359375 0.2666015625 3.567626953125 0.3193359375 Q 3.61376953125 0.318603515625 3.6580810546875 0.3175048828125 Q 3.702392578125 0.31640625 3.7386474609375 0.3145751953125 Q 3.77490234375 0.312744140625 3.8001708984375 0.3109130859375 Q 3.825439453125 0.30908203125 3.83349609375 0.3076171875 L 3.8203125 0.38232421875 Q 3.782958984375 0.381591796875 3.741943359375 0.380126953125 Q 3.706787109375 0.378662109375 3.661376953125 0.3779296875 Q 3.615966796875 0.377197265625 3.567626953125 0.37646484375 L 3.567626953125 0.88037109375 Q 3.567626953125 0.92578125 3.5775146484375 0.9539794921875 Q 3.58740234375 0.982177734375 3.6031494140625 0.998291015625 Q 3.618896484375 1.014404296875 3.6390380859375 1.020263671875 Q 3.6591796875 1.026123046875 3.680419921875 1.026123046875 M 3.936767578125 0.69287109375 Q 3.936767578125 0.610107421875 3.967529296875 0.5394287109375 Q 3.998291015625 0.46875 4.0521240234375 0.416748046875 Q 4.10595703125 0.36474609375 4.17919921875 0.33544921875 Q 4.25244140625 0.30615234375 4.336669921875 0.30615234375 Q 4.41943359375 0.30615234375 4.4923095703125 0.3336181640625 Q 4.565185546875 0.361083984375 4.619384765625 0.41162109375 Q 4.673583984375 0.462158203125 4.7047119140625 0.53466796875 Q 4.73583984375 0.607177734375 4.73583984375 0.697265625 Q 4.73583984375 0.772705078125 4.70947265625 0.84228515625 Q 4.68310546875 0.911865234375 4.6318359375 0.96533203125 Q 4.58056640625 1.018798828125 4.5062255859375 1.0506591796875 Q 4.431884765625 1.08251953125 4.335205078125 1.08251953125 Q 4.253173828125 1.08251953125 4.1806640625 1.055419921875 Q 4.108154296875 1.0283203125 4.053955078125 0.977783203125 Q 3.999755859375 0.92724609375 3.96826171875 0.8551025390625 Q 3.936767578125 0.782958984375 3.936767578125 0.69287109375 M 4.35205078125 1.029052734375 Q 4.404052734375 1.029052734375 4.4476318359375 1.008544921875 Q 4.4912109375 0.988037109375 4.522705078125 0.94921875 Q 4.55419921875 0.910400390625 4.57177734375 0.854736328125 Q 4.58935546875 0.799072265625 4.58935546875 0.728759765625 Q 4.58935546875 0.649658203125 4.572509765625 0.5819091796875 Q 4.5556640625 0.51416015625 4.5223388671875 0.4647216796875 Q 4.489013671875 0.415283203125 4.4384765625 0.387451171875 Q 4.387939453125 0.359619140625 4.320556640625 0.359619140625 Q 4.2685546875 0.359619140625 4.225341796875 0.3797607421875 Q 4.18212890625 0.39990234375 4.1502685546875 0.43798828125 Q 4.118408203125 0.47607421875 4.100830078125 0.5313720703125 Q 4.083251953125 0.586669921875 4.083251953125 0.656982421875 Q 4.083251953125 0.736083984375 4.1004638671875 0.80419921875 Q 4.11767578125 0.872314453125 4.1513671875 0.9224853515625 Q 4.18505859375 0.97265625 4.2352294921875 1.0008544921875 Q 4.285400390625 1.029052734375 4.35205078125 1.029052734375 M 4.9072265625 0.605712890625 Q 4.9072265625 0.54345703125 4.9053955078125 0.4969482421875 Q 4.903564453125 0.450439453125 4.9010009765625 0.416748046875 Q 4.8984375 0.383056640625 4.8944091796875 0.3603515625 Q 4.890380859375 0.337646484375 4.885986328125 0.322265625 L 4.885986328125 0.3193359375 L 5.05517578125 0.3193359375 L 5.05517578125 0.322265625 Q 5.04931640625 0.339111328125 5.0452880859375 0.36328125 Q 5.041259765625 0.387451171875 5.0390625 0.425537109375 Q 5.066162109375 0.40283203125 5.095458984375 0.380859375 Q 5.124755859375 0.35888671875 5.155517578125 0.342041015625 Q 5.186279296875 0.3251953125 5.2181396484375 0.31494140625 Q 5.25 0.3046875 5.2822265625 0.3046875 Q 5.302001953125 0.3046875 5.316650390625 0.3065185546875 Q 5.331298828125 0.308349609375 5.343017578125 0.3116455078125 Q 5.354736328125 0.31494140625 5.3642578125 0.3189697265625 Q 5.373779296875 0.322998046875 5.382568359375 0.32666015625 L 5.3466796875 0.466552734375 L 5.334228515625 0.463623046875 Q 5.325439453125 0.431396484375 5.30126953125 0.4119873046875 Q 5.277099609375 0.392578125 5.2353515625 0.392578125 Q 5.212646484375 0.392578125 5.187744140625 0.400634765625 Q 5.162841796875 0.40869140625 5.13720703125 0.4229736328125 Q 5.111572265625 0.437255859375 5.0859375 0.4559326171875 Q 5.060302734375 0.474609375 5.0361328125 0.4951171875 Q 5.03466796875 0.516357421875 5.03466796875 0.541259765625 Q 5.03466796875 0.566162109375 5.03466796875 0.593994140625 L 5.03466796875 0.782958984375 Q 5.03466796875 0.84521484375 5.0361328125 0.8917236328125 Q 5.03759765625 0.938232421875 5.04052734375 0.971923828125 Q 5.04345703125 1.005615234375 5.047119140625 1.0283203125 Q 5.05078125 1.051025390625 5.05517578125 1.06640625 L 5.05517578125 1.0693359375 L 4.885986328125 1.0693359375 L 4.885986328125 1.06640625 Q 4.890380859375 1.051025390625 4.8944091796875 1.0283203125 Q 4.8984375 1.005615234375 4.9010009765625 0.971923828125 Q 4.903564453125 0.938232421875 4.9053955078125 0.8917236328125 Q 4.9072265625 0.84521484375 4.9072265625 0.782958984375 L 4.9072265625 0.605712890625" fill="#231f20" fill-rule="nonzero"></path></g><g></g><g clip-path="url(&quot;#SvgjsClipPath1001&quot;)"><g clip-path="url(&quot;#SvgjsClipPath1000a46746c3-a2d6-47ec-885e-d132ea5ac317&quot;)"><path d=" M 3.0011249302750898 -0.9879841790492954 L 3.0575629050407236 -0.6122341168851935 C 3.0575629050407236 -0.6122341168851935 2.7855820639075426 -0.39017917650622724 2.864947965921715 -0.3198691274141856 C 2.9511651124687335 -0.2435557600928666 3.084001247186042 -0.5256438827646042 3.084001247186042 -0.5256438827646042 C 3.084001247186042 -0.5256438827646042 3.0320572818293314 -0.24603170489929216 3.125430926378483 -0.25005087557821604 C 3.2601833745418607 -0.25568110623392126 3.1567872410845093 -0.5332582609706646 3.1567872410845093 -0.5332582609706646 C 3.1567872410845093 -0.5332582609706646 3.3139927777664258 -0.2924471907567261 3.3989889104363034 -0.38331097344731013 C 3.468383199120489 -0.45760627616613014 3.148291019522736 -0.6339749473087344 3.148291019522736 -0.6339749473087344 L 3.1283817099149074 -1.0121500787010476 Z" fill="#ffcb05" transform="matrix(1,0,0,1,0,0)" fill-rule="nonzero"></path></g><g clip-path="url(&quot;#SvgjsClipPath1000a46746c3-a2d6-47ec-885e-d132ea5ac317&quot;)"><path d=" M 2.3814434290999102 -0.9879841790492954 L 2.325022412860349 -0.6122341168851935 C 2.325022412860349 -0.6122341168851935 2.596986295467457 -0.39017917650622724 2.517637351979358 -0.3198691274141856 C 2.431386288380195 -0.2435557600928666 2.2985840707150293 -0.5256438827646042 2.2985840707150293 -0.5256438827646042 C 2.2985840707150293 -0.5256438827646042 2.350528036071741 -0.24603170489929216 2.257154391522589 -0.25005087557821604 C 2.12238498483314 -0.25568110623392126 2.2257980768165626 -0.5332582609706646 2.2257980768165626 -0.5332582609706646 C 2.2257980768165626 -0.5332582609706646 2.0685755816085747 -0.2924471907567261 1.983579448938697 -0.38331097344731013 C 1.9142021187805824 -0.45760627616613014 2.234311256904408 -0.6339749473087344 2.234311256904408 -0.6339749473087344 L 2.254203607986165 -1.0121500787010476 Z" fill="#ffcb05" transform="matrix(1,0,0,1,0,0)" fill-rule="nonzero"></path></g><g clip-path="url(&quot;#SvgjsClipPath1000a46746c3-a2d6-47ec-885e-d132ea5ac317&quot;)"><path d=" M 4.243472633214017 -4.541609400259897 L 3.8935334477305923 -4.22351832673857 C 3.6086302097310017 -4.3187065335773624 3.163282356569857 -4.3800285638515595 2.662446206103078 -4.3800285638515595 C 2.1616100556362987 -4.3800285638515595 1.7163300365794398 -4.3187065335773624 1.4312572133191355 -4.22351832673857 L 1.0813689034139244 -4.541609400259897 C 1.0813689034139244 -4.541609400259897 0.10153918406033408 -0.9311391996579497 2.6623783719987926 -0.8281331123002404 C 5.223302352567607 -0.9310883240797345 4.243472633214017 -4.541609400259897 4.243472633214017 -4.541609400259897 Z" fill="#64bde1" transform="matrix(1,0,0,1,0,0)" fill-rule="nonzero"></path></g><g clip-path="url(&quot;#SvgjsClipPath1000a46746c3-a2d6-47ec-885e-d132ea5ac317&quot;)"><path d=" M 3.973933819835119 -3.0689988303234452 C 3.9739431861481553 -2.769033275934806 3.730785617821028 -2.525852930092977 3.4308200638716633 -2.525834198782441 C 3.1308451438163565 -2.5258341986362343 2.8876647980598844 -2.7690069518876084 2.8876554323313246 -3.068981871797374 C 2.887674163641212 -3.3689474257448984 3.1308545094825164 -3.6121049940725514 3.4308200638704887 -3.612095627760165 C 3.7307630070635276 -3.6120862630299966 3.973915089351321 -3.3689417730760045 3.973933819835119 -3.0689988303234452 Z" fill="#0091d0" transform="matrix(1,0,0,1,0,0)" fill-rule="nonzero"></path></g><g clip-path="url(&quot;#SvgjsClipPath1000a46746c3-a2d6-47ec-885e-d132ea5ac317&quot;)"><path d=" M 3.7242703990119064 -3.37340437330515 C 3.737202278970096 -3.375742764890069 3.7499316566548178 -3.3790881247270343 3.762342290042209 -3.383409903687279 C 3.775397798151716 -3.3878218091733654 3.7881740153726233 -3.3930206422446396 3.800600724859296 -3.3989778306208285 C 3.825738962734621 -3.410924127077874 3.8490064315198693 -3.4264624317908323 3.869672801548126 -3.445105021535048 C 3.8906719973925297 -3.464192958694378 3.907925707068063 -3.487031119068226 3.9205483797623386 -3.512447328564593 C 3.9334585398562196 -3.538882635051931 3.9415009474053297 -3.5674274372744534 3.9442903162623044 -3.596714244613403 C 3.947305299173988 -3.566367709721912 3.9448293940809576 -3.5357262299858907 3.9369811915255295 -3.5062574665485307 C 3.9286495183134003 -3.475835766413393 3.914726762815234 -3.447231146071437 3.89592459990666 -3.4219057578693675 C 3.8767980898859795 -3.3962107614202157 3.8540129692729046 -3.3734542079092127 3.8282939979338995 -3.354359948526967 C 3.8154282376691415 -3.3446711156135462 3.8019772076214533 -3.3357849403946735 3.7880174985143156 -3.3277520211209333 C 3.773570205912605 -3.3192805548733766 3.758475230725852 -3.31196555938468 3.7428739021122372 -3.305875522488823 Z" fill="#231f20" transform="matrix(1,0,0,1,0,0)" fill-rule="nonzero"></path></g><g clip-path="url(&quot;#SvgjsClipPath1000a46746c3-a2d6-47ec-885e-d132ea5ac317&quot;)"><path d=" M 3.75776348800293 -3.356801976281244 C 3.770701202604056 -3.3544943922243804 3.7837987185299804 -3.353195980472416 3.7969376832278736 -3.3529184738108917 C 3.8107101121466886 -3.3525013762628237 3.8244951575034896 -3.3529318049592565 3.8382147356856713 -3.3542073217923196 C 3.865937673684311 -3.356629530693162 3.8931595745148213 -3.363079378759825 3.919022112415912 -3.373353497726937 C 3.945378687480471 -3.3839212857164034 3.9695334892176057 -3.399311345108921 3.9902479219158096 -3.4187345134940132 C 4.01154045814271 -3.4390321256894136 4.0290037746137335 -3.4629982297410953 4.041801841172878 -3.489485484263912 C 4.034062368180457 -3.460000865077916 4.021086294923718 -3.432147399286889 4.003492530777576 -3.4072535913436734 C 3.9850735375303126 -3.381657875849916 3.962074518082812 -3.359693812277553 3.9356584264919596 -3.3424720217509085 C 3.90877359638095 -3.3250486781872564 3.879488012524525 -3.3116456388335345 3.848729021849941 -3.3026873195873936 C 3.833301240079513 -3.2981049467493104 3.8176080031447035 -3.294469054251242 3.801736946106081 -3.291799945849551 C 3.7852310032234318 -3.2888844982629704 3.768519474954796 -3.287285363219958 3.7517601697736533 -3.287017641497414 Z" fill="#231f20" transform="matrix(1,0,0,1,0,0)" fill-rule="nonzero"></path></g><g clip-path="url(&quot;#SvgjsClipPath1000a46746c3-a2d6-47ec-885e-d132ea5ac317&quot;)"><path d=" M 2.472273294738351 -3.0689988303234452 C 2.472277792510839 -2.92494417279238 2.4150554554277255 -2.7867880801371983 2.3131950203666793 -2.6849244647203827 C 2.2113345853056314 -2.5830608493035667 2.0731802793246192 -2.525834198712215 1.9291256217233785 -2.525834198782441 C 1.7850784000811115 -2.5258386963929826 1.6469327642911833 -2.5830655458218565 1.545079177397391 -2.6849254933967757 C 1.4432255905035989 -2.786785440971695 1.3860073680096545 -2.9249346501550715 1.3860118657606293 -3.068981871797374 C 1.3860118657606293 -3.3689353166389457 1.6291721768818466 -3.612095627760163 1.9291256217234183 -3.612095627760163 C 2.2290818101760737 -3.6121049940735763 2.472254563427464 -3.368955018337477 2.47227329473835 -3.0689988303234434 Z" fill="#0091d0" transform="matrix(1,0,0,1,0,0)" fill-rule="nonzero"></path></g><g clip-path="url(&quot;#SvgjsClipPath1000a46746c3-a2d6-47ec-885e-d132ea5ac317&quot;)"><path d=" M 1.5821033027242752 -3.305926398067032 C 1.5664857195906894 -3.3120166462780842 1.551373853305096 -3.3193315834294568 1.5369088307439822 -3.3278028966991435 C 1.5229540956906604 -3.335843872086997 1.509503550273035 -3.3447297271439447 1.4966323313243974 -3.354410824105175 C 1.470934136473901 -3.373523470155982 1.4481571192194422 -3.396277636126512 1.429018687877709 -3.4219566334475777 C 1.4102219493967834 -3.447285315795974 1.396299708533713 -3.4758888788083286 1.3879620962588386 -3.5063083421267423 C 1.3801233924835936 -3.5357787397673057 1.3776476265415245 -3.566418497389116 1.3806529715220643 -3.5967651201916113 C 1.3834430705037286 -3.567478449335863 1.3914854419126528 -3.5389337753851913 1.4043949080220297 -3.5124982041428034 C 1.4170070422810892 -3.487075477266113 1.4342621411508263 -3.4642354780622044 1.4552704862362429 -3.445155897113258 C 1.4759190402837323 -3.426506515652341 1.4991763750077833 -3.410967348261179 1.5243086458729296 -3.3990287061990365 C 1.5367456169309817 -3.393068495934174 1.5495333041578345 -3.387869604492965 1.5626009977421593 -3.3834607792654907 C 1.5749995403296237 -3.3791372556790513 1.5877177855943014 -3.37579184118678 1.60063897172032 -3.3734552488833565 Z" fill="#231f20" transform="matrix(1,0,0,1,0,0)" fill-rule="nonzero"></path></g><g clip-path="url(&quot;#SvgjsClipPath1000a46746c3-a2d6-47ec-885e-d132ea5ac317&quot;)"><path d=" M 1.573267910641073 -3.2871024341277733 C 1.5565199353357893 -3.2873718074572844 1.5398198080592953 -3.2889709367924205 1.5233250513607872 -3.2918847384799115 C 1.507453613166173 -3.2945519382849553 1.4917602603746933 -3.2981878576253143 1.4763329756169266 -3.3027721122177542 C 1.4455728816579267 -3.3117274669572696 1.416286878652353 -3.325130698141639 1.3894035709749093 -3.3425568143812674 C 1.3629801492510056 -3.359769352069316 1.339979554167404 -3.3817349203741562 1.3215694666892928 -3.4073383839740305 C 1.303971076564971 -3.432233983594566 1.2909840909175085 -3.460086214202504 1.2832262392418463 -3.489570276894271 C 1.2960366833285124 -3.4630773027190154 1.3135177812984122 -3.4391104474017555 1.3348310340771308 -3.418819306124372 C 1.3555124036226673 -3.3993949204842306 1.3796397372581044 -3.3840040397194073 1.4059720509466702 -3.373438290357294 C 1.4318228851297703 -3.3631643667309516 1.4590335756549908 -3.35671446759113 1.4867455106247693 -3.3542921144226785 C 1.5004821439138605 -3.353017371922024 1.5142840681006509 -3.3525869467114386 1.5280734386607802 -3.3530032664412506 C 1.541200963708073 -3.3532841622289826 1.5542869456489252 -3.3545825547179158 1.5672137168335825 -3.356886768911603 Z" fill="#231f20" transform="matrix(1,0,0,1,0,0)" fill-rule="nonzero"></path></g><g clip-path="url(&quot;#SvgjsClipPath1000a46746c3-a2d6-47ec-885e-d132ea5ac317&quot;)"><path d=" M 2.3937383605016787 -3.0689988303234452 C 2.3937383605016778 -2.8027319112019367 2.177891341178028 -2.5868772996510834 1.9116244225194798 -2.5868679341134126 C 1.6453641269479253 -2.586886665052327 1.429527443001008 -2.8027385337947948 1.4295274436598515 -3.0689988303234434 C 1.4295274436598515 -3.3352563835096367 1.6453668703927702 -3.5511034024697454 1.9116244231159893 -3.551112768007403 C 2.177884718948726 -3.5511034027026525 2.3937289951969394 -3.3352591264544413 2.3937383605016778 -3.0689988303234452 Z" fill="#ffffff" transform="matrix(1,0,0,1,0,0)" fill-rule="nonzero"></path></g><g clip-path="url(&quot;#SvgjsClipPath1000a46746c3-a2d6-47ec-885e-d132ea5ac317&quot;)"><path d=" M 2.3275153161928452 -3.0978792002230446 C 2.3275153177224013 -2.995232426733319 2.2443136001083985 -2.91201552522924 2.1416668286518514 -2.911996795954325 C 2.0923767453029893 -2.912005790495127 2.045109028289602 -2.931594826566376 2.0102620365601975 -2.9664545396580992 C 1.9754150448307937 -3.001314252749821 1.9558432626295705 -3.048589116550008 1.955852258811951 -3.0978792002230446 C 1.9558477603895152 -3.1471616671951215 1.9754231518239278 -3.194426943906262 2.010271118558606 -3.2292749106409024 C 2.045119085293285 -3.264122877375547 2.092384362004445 -3.283698268809908 2.1416668289764242 -3.28369377038742 C 2.1909524147800186 -3.283698268273409 2.2382211780583883 -3.264123959103687 2.273074530335511 -3.2292769675076984 C 2.307927882612633 -3.1944299759117083 2.327510818717305 -3.1471647860267775 2.3275153161928452 -3.0978792002230477 Z" fill="#231f20" transform="matrix(1,0,0,1,0,0)" fill-rule="nonzero"></path></g><g clip-path="url(&quot;#SvgjsClipPath1000a46746c3-a2d6-47ec-885e-d132ea5ac317&quot;)"><path d=" M 2.2613770645143694 -3.1299647315501424 C 2.261367704064827 -3.0993794648303363 2.2365757850849586 -3.0745875458504743 2.205990518365157 -3.0745781854009393 C 2.1913026519679466 -3.0745781847120277 2.1772166100849284 -3.0804140773756368 2.166832310520998 -3.090801557429482 C 2.156448010957066 -3.101189037483325 2.1506164321612027 -3.115276865841838 2.1506209307420283 -3.1299647315501455 C 2.1506164321612022 -3.144652597258441 2.1564480109570647 -3.158740425616956 2.166832310520994 -3.169127905670801 C 2.1772166100849244 -3.179515385724644 2.191302651967943 -3.1853512783882545 2.2059905183651582 -3.185351277699347 C 2.2365796631491692 -3.185351277699347 2.2613770645143694 -3.1605538763341476 2.2613770645143694 -3.1299647315501407 Z" fill="#ffffff" transform="matrix(1,0,0,1,0,0)" fill-rule="nonzero"></path></g><g clip-path="url(&quot;#SvgjsClipPath1000a46746c3-a2d6-47ec-885e-d132ea5ac317&quot;)"><path d=" M 3.8953988855984463 -3.0689988303234452 C 3.8953988855984467 -2.8027319112019367 3.679551866274797 -2.5868772996510834 3.4132849476162477 -2.5868679341134126 C 3.147021908588675 -2.5868866644218205 2.9311803748082923 -2.8027357905035064 2.931171010230548 -3.0689988303234434 C 2.9311897395789064 -3.3352552474508856 3.147028530786583 -3.5510940386587744 3.413284947914261 -3.5511127680073913 C 3.679545244045495 -3.5511034027026525 3.895389520293707 -3.3352591264544413 3.8953988855984463 -3.0689988303234452 Z" fill="#ffffff" transform="matrix(1,0,0,1,0,0)" fill-rule="nonzero"></path></g><g clip-path="url(&quot;#SvgjsClipPath1000a46746c3-a2d6-47ec-885e-d132ea5ac317&quot;)"><path d=" M 3.8292097583417557 -3.0978792002230446 C 3.829219125381776 -2.995235170589303 3.74602225800312 -2.912015526189284 3.643378229651102 -2.9119967959543844 C 3.594083648486076 -2.9120012934299613 3.546809831666238 -2.9315878029280933 3.511956479389132 -2.966447515886337 C 3.4771031271120254 -3.001307228844577 3.4575252445488416 -3.0485846190578494 3.4575297424347906 -3.0978792002230446 C 3.457529741700357 -3.1471661656758405 3.477111233554653 -3.19443396937437 3.511965561165173 -3.229281936003252 C 3.5468198887756937 -3.264129902632133 3.59409126567283 -3.2837027669082604 3.643378229977925 -3.2836937703873605 C 3.6926622558983997 -3.2836982683363547 3.7399292757114107 -3.264123418017234 3.7747799351762894 -3.2292759389374117 C 3.809630594641168 -3.194428459857593 3.8292097585470097 -3.147163226675393 3.8292097583417553 -3.0978792002230477 Z" fill="#231f20" transform="matrix(1,0,0,1,0,0)" fill-rule="nonzero"></path></g><g clip-path="url(&quot;#SvgjsClipPath1000a46746c3-a2d6-47ec-885e-d132ea5ac317&quot;)"><path d=" M 3.7629527969807794 -3.1299647315501424 C 3.762957295561607 -3.115276865841845 3.757125716765744 -3.10118903748333 3.7467414172018136 -3.090801557429485 C 3.7363571176378834 -3.080414077375642 3.7222710757548656 -3.0745781847120313 3.70758320935765 -3.0745781854009393 C 3.676991320131384 -3.0745781839678337 3.652189068590916 -3.0993728437569876 3.652179704682368 -3.1299647315501424 C 3.6521890685909195 -3.1605566193433052 3.6769913201313917 -3.1853512791324556 3.7075832093576517 -3.1853512776993487 C 3.7222710757548607 -3.1853512783882563 3.736357117637879 -3.179515385724647 3.74674141720181 -3.169127905670804 C 3.7571257167657413 -3.158740425616961 3.7629572955616055 -3.144652597258448 3.7629527969807794 -3.1299647315501407 Z" fill="#ffffff" transform="matrix(1,0,0,1,0,0)" fill-rule="nonzero"></path></g><g clip-path="url(&quot;#SvgjsClipPath1000a46746c3-a2d6-47ec-885e-d132ea5ac317&quot;)"><path d=" M 2.66248012315522 -3.4624027181278776 C 3.0106217048750765 -3.7964856817345414 3.6368322385877465 -4.028444401339208 4.3536860941520725 -3.994442556566042 C 4.3261025637116965 -4.178557762496114 4.2893129853499286 -4.361175569548796 4.243455674687947 -4.54160940025989 L 3.8935164892045204 -4.22351832673857 C 3.6086132512049303 -4.3187065335773624 3.1632653980437855 -4.3800285638515595 2.662429247577006 -4.3800285638515595 C 2.1615930971102277 -4.3800285638515595 1.716313078053367 -4.3187065335773624 1.4312402547930645 -4.22351832673857 L 1.0813519448878535 -4.541609400259897 C 1.0813519448878535 -4.541609400259897 1.0223701912115095 -4.324099344868068 0.9711215254237267 -3.994442556566042 C 1.6881788833009082 -4.028461359865279 2.31428766585715 -3.7964178476302552 2.66248012315522 -3.4624027181278776 Z" fill="#0091d0" transform="matrix(1,0,0,1,0,0)" fill-rule="nonzero"></path></g><g clip-path="url(&quot;#SvgjsClipPath1000a46746c3-a2d6-47ec-885e-d132ea5ac317&quot;)"><path d=" M 2.66248012315522 -2.201587180297192 C 2.359617806046013 -1.9580288288596845 1.7512476417604599 -1.8059617255774043 1.0835565532771345 -1.9134279052918926 C 1.307188636580742 -1.3264254838563079 1.7695458913915056 -0.8640173534673301 2.662395330524863 -0.8280822367220257 C 3.5553126037625065 -0.8639664778891167 4.017686817099341 -1.3263746082780932 4.241234107772591 -1.9134279052918926 C 3.573644770445695 -1.8059617255774043 2.9652746061601416 -1.9580288288596863 2.66248012315522 -2.201587180297192 Z" fill="#0091d0" transform="matrix(1,0,0,1,0,0)" fill-rule="nonzero"></path></g><g clip-path="url(&quot;#SvgjsClipPath1000a46746c3-a2d6-47ec-885e-d132ea5ac317&quot;)"><path d=" M 2.66248012315522 -2.2960631290409856 L 2.8945575524423863 -2.6980649895636213 C 2.8183462178882572 -2.714883304018702 2.7405250779886186 -2.7233222204681757 2.662480123155221 -2.7232314422535846 C 2.584423866533216 -2.723324014675456 2.5065912927377307 -2.71488509164539 2.430368776815909 -2.6980649895636213 Z" fill="#ffcb05" transform="matrix(1,0,0,1,0,0)" fill-rule="nonzero"></path></g><g clip-path="url(&quot;#SvgjsClipPath1000a46746c3-a2d6-47ec-885e-d132ea5ac317&quot;)"><path d=" M 1.8485217473060345 -1.6455340689419216 C 1.8723031615203651 -1.6303810788878246 1.898086713929487 -1.6186280714912384 1.925123409570567 -1.610616463760901 C 1.9501078433922683 -1.603396014354721 1.9759895838108854 -1.5997532721559402 2.0019964082522423 -1.5997969241273444 C 2.0279994643494375 -1.5997957668843887 2.0538728083252975 -1.6034609669798203 2.078852448407846 -1.6106842978651872 C 2.105886681785255 -1.6187143609765213 2.131681519668683 -1.6304418812974166 2.155504986250592 -1.6455340689419216 C 2.1495228924632537 -1.6135752290081409 2.1304654415565722 -1.5855669237401275 2.1029335554292383 -1.568271024160604 C 2.073039645402231 -1.5484654903578243 2.037905375942775 -1.5380533678066377 2.002047283830455 -1.5383731426967189 C 1.9662094420405671 -1.5381343227361426 1.931112105743417 -1.5485720166929746 1.9012288463359575 -1.568355816790961 C 1.873689697595157 -1.585630897705224 1.8545911060722193 -1.6135966924352378 1.8485217473060345 -1.6455340689419216 Z" fill="#ffffff" transform="matrix(1,0,0,1,0,0)" fill-rule="nonzero"></path></g><g clip-path="url(&quot;#SvgjsClipPath1000a46746c3-a2d6-47ec-885e-d132ea5ac317&quot;)"><path d=" M 2.2887990011718298 -1.6455340689419216 C 2.31258622448776 -1.6303806270844885 2.3383754360908995 -1.6186276419824828 2.3654176219624334 -1.6106164637608993 C 2.390413399298286 -1.6033948546500887 2.416306495581484 -1.5997521213692334 2.4423245376962512 -1.599796924127343 C 2.468316423053291 -1.5997962440474995 2.4941785049153693 -1.6034614662451712 2.5191466607997124 -1.6106842978651854 C 2.546179676821487 -1.6187176173390823 2.571974078579978 -1.6304449393775111 2.595799198642459 -1.6455340689419216 C 2.589801491051676 -1.613581672331624 2.5707479289363233 -1.5855790823324152 2.5432277678211066 -1.568271024160604 C 2.5133386589748716 -1.548468735581166 2.4782107818811343 -1.538056757215958 2.442358454748394 -1.5383731426967189 C 2.4065103911070884 -1.538136817107803 2.3714029193606283 -1.5485740140218347 2.3415061002017534 -1.568355816790961 C 2.3139698654548013 -1.5856339272149467 2.2948722421314454 -1.6135983042241469 2.2887990011718298 -1.6455340689419216 Z" fill="#ffffff" transform="matrix(1,0,0,1,0,0)" fill-rule="nonzero"></path></g><g clip-path="url(&quot;#SvgjsClipPath1000a46746c3-a2d6-47ec-885e-d132ea5ac317&quot;)"><path d=" M 2.7291101720897673 -1.6455340689419216 C 2.7528931791739133 -1.6303840122173163 2.7786763080638086 -1.6186311978749872 2.8057118343543 -1.610616463760901 C 2.830707324701164 -1.6033935116340192 2.856600613275935 -1.5997507513008977 2.8826187500881177 -1.599796924127343 C 2.908616316361868 -1.5997946492694242 2.9344842186716082 -1.6034598872484236 2.9594578317176503 -1.6106842978651872 C 2.9864950546282314 -1.6187206328037442 3.0122946551915546 -1.630447723968893 3.0361273280864682 -1.6455340689419216 C 3.0301237766284905 -1.6135840851060865 3.0110716688815926 -1.5855836325593544 2.983555897265116 -1.5682710241606022 C 2.953670332701714 -1.5484611421159382 2.9185400774154644 -1.5380484588493504 2.882686584192403 -1.538373142696717 C 2.846838520551097 -1.538136817107803 2.811731048804637 -1.5485740140218347 2.7818342296457623 -1.568355816790961 C 2.754301746088937 -1.5856410906834872 2.735201019777528 -1.6136010152390425 2.7291101720897673 -1.6455340689419216 Z" fill="#ffffff" transform="matrix(1,0,0,1,0,0)" fill-rule="nonzero"></path></g><g clip-path="url(&quot;#SvgjsClipPath1000a46746c3-a2d6-47ec-885e-d132ea5ac317&quot;)"><path d=" M 3.1693874259555623 -1.6455340689419216 C 3.1931839562182738 -1.6303866201534847 3.218977897188978 -1.6186340809946707 3.246023005272238 -1.6106164637608993 C 3.2710132304004063 -1.6033959938756297 3.296900568676046 -1.5997532674045556 3.322912962479984 -1.599796924127343 C 3.3489050550670183 -1.5997933032413458 3.374767547770329 -1.6034585836641981 3.3997350855834454 -1.6106842978651872 C 3.4267801612038045 -1.618713894470131 3.452586265912699 -1.6304413480695952 3.4764215404783343 -1.6455340689419216 C 3.470406319734617 -1.6135889049864005 3.4513571143209747 -1.5855927179333191 3.423850109656981 -1.568271024160604 C 3.3939561996299723 -1.5484654903578243 3.3588219301705173 -1.5380533678066377 3.3229638380581976 -1.5383731426967189 C 3.2871257042472513 -1.538132268144937 3.2520277817923247 -1.5485701364208517 3.2221454005637002 -1.568355816790961 C 3.194600048985748 -1.5856342436660227 3.1754863531719506 -1.6135951660860153 3.1693874259555623 -1.6455340689419216 Z" fill="#ffffff" transform="matrix(1,0,0,1,0,0)" fill-rule="nonzero"></path></g><g clip-path="url(&quot;#SvgjsClipPath1000a46746c3-a2d6-47ec-885e-d132ea5ac317&quot;)"><path d=" M 2.0714415725146424 -1.3813032742233742 C 2.095218928307042 -1.3661469785414844 2.1210037724314885 -1.3543990907380494 2.148043234779176 -1.3464026275684242 C 2.1730300810290863 -1.339162615507282 2.198918607809924 -1.3355083020666698 2.2249331919869215 -1.3355491708827256 C 2.250941034662576 -1.3355649198202757 2.276815946939745 -1.3392588889825277 2.301789232142526 -1.3465213372509237 C 2.328828285709882 -1.354507581705711 2.3546259878568794 -1.3662135744277224 2.3784417699852733 -1.3813032742233724 C 2.3724581946787717 -1.3493406152512146 2.3534017020051454 -1.3213275710209844 2.32587033916392 -1.3040232709159851 C 2.2959747671288566 -1.2842386426168666 2.2608489577526925 -1.2738390880924162 2.2250010260912068 -1.2741593065042407 C 2.1891639140924415 -1.2739256193362527 2.154068041656356 -1.2843628779513923 2.1241825885967085 -1.3041419805984846 C 2.0966475289495046 -1.3214199860077844 2.0775408169213536 -1.3493735357595824 2.0714415725146424 -1.3813032742233742 Z" fill="#ffffff" transform="matrix(1,0,0,1,0,0)" fill-rule="nonzero"></path></g><g clip-path="url(&quot;#SvgjsClipPath1000a46746c3-a2d6-47ec-885e-d132ea5ac317&quot;)"><path d=" M 2.5117697019586513 -1.3813032742233742 C 2.5355482322185154 -1.3661491413456885 2.561332763208839 -1.3544013962099601 2.5883713642231845 -1.3464026275684229 C 2.6133643399014708 -1.3391641699118892 2.6392582384384435 -1.335509904186715 2.6652782799570014 -1.3355491708827256 C 2.691280457238864 -1.3355662913498354 2.7171495800466814 -1.3392602490758678 2.7421173615865344 -1.3465213372509237 C 2.769157568242354 -1.3545044859709745 2.7949556877301025 -1.3662106680659676 2.818769899429281 -1.3813032742233724 C 2.8127804676072627 -1.349343031235279 2.7937254333910024 -1.3213321309373751 2.7661984686079286 -1.3040232709159851 C 2.7363081407249967 -1.2842409383056772 2.7011884262811114 -1.2738414398803064 2.6653461140612875 -1.2741593065042407 C 2.629503672121506 -1.2739253260075603 2.5944022925202184 -1.2843624667971794 2.5645107180407187 -1.3041419805984829 C 2.536975658393513 -1.3214199860077844 2.5178689463653625 -1.3493735357595824 2.5117697019586513 -1.3813032742233742 Z" fill="#ffffff" transform="matrix(1,0,0,1,0,0)" fill-rule="nonzero"></path></g><g clip-path="url(&quot;#SvgjsClipPath1000a46746c3-a2d6-47ec-885e-d132ea5ac317&quot;)"><path d=" M 2.9520808728765893 -1.3813032742233742 C 2.975851579433989 -1.3661347380802367 3.0016381995570622 -1.3543860411102835 3.0286825351411224 -1.3464026275684242 C 3.0536639257657097 -1.3391642054929727 3.0795466297684895 -1.3355099079942336 3.105555533822797 -1.3355491708827256 C 3.131574415730226 -1.3355662652386795 3.1574603346513492 -1.3392601755920026 3.182445491030543 -1.3465213372509237 C 3.20947905035615 -1.3545080151166449 3.2352710925328414 -1.3662140293906853 3.259081070347219 -1.3813032742233724 C 3.253074105973041 -1.349350267833377 3.2340234342819825 -1.3213457804475195 3.206509639525866 -1.3040232709159851 C 3.1766013722314095 -1.284238786271871 3.141464853957826 -1.2738395579223272 3.105606409401011 -1.2741593065042407 C 3.0697695892140944 -1.273927670980505 3.034674301709826 -1.2843647556411524 3.0047879719065134 -1.3041419805984846 C 2.977265779939987 -1.321426830657301 2.95817203637194 -1.3493793831780896 2.9520808728765893 -1.3813032742233742 Z" fill="#ffffff" transform="matrix(1,0,0,1,0,0)" fill-rule="nonzero"></path></g><g clip-path="url(&quot;#SvgjsClipPath1000a46746c3-a2d6-47ec-885e-d132ea5ac317&quot;)"><path d=" M 1.0914592264264096 -2.917406565771163 C 1.0914592264264096 -2.917406565771163 0.175698818570584 -2.4028848847647595 0.3943111781570557 -2.1577833074547557 C 0.514326667164383 -2.0232343616042363 0.7670595812065196 -2.297792898700268 0.7670595812065196 -2.297792898700268 C 0.7670595812065196 -2.297792898700268 0.6416682394345572 -1.9596568473625404 0.8187491686721597 -1.9411211783664957 C 0.9958300979097623 -1.9225855093704527 1.1241043891138622 -2.36313409965339 1.0914592264264096 -2.917406565771163 Z" fill="#0091d0" transform="matrix(1,0,0,1,0,0)" fill-rule="nonzero"></path></g><g clip-path="url(&quot;#SvgjsClipPath1000a46746c3-a2d6-47ec-885e-d132ea5ac317&quot;)"><path d=" M 4.291109132948591 -2.917406565771163 C 4.291109132948591 -2.917406565771163 5.206954333434773 -2.4028848847647595 4.988308056796159 -2.1578341830329704 C 4.868309526314903 -2.0232852371824515 4.615593570798838 -2.297843774278483 4.615593570798838 -2.297843774278483 C 4.615593570798838 -2.297843774278483 4.7409509955186575 -1.9597077229407551 4.563903983333198 -1.9411720539447104 C 4.386856971147738 -1.9226363849486674 4.258480928787209 -2.36313409965339 4.291109132948591 -2.917406565771163 Z" fill="#0091d0" transform="matrix(1,0,0,1,0,0)" fill-rule="nonzero"></path></g></g></g><defs><clipPath id="SvgjsClipPath1001"><path d=" M 0.3605637112749611 -4.541609400259897 h 4.661440936825078 v 4.291609400259897 h -4.661440936825078 Z"></path></clipPath><clipPath id="SvgjsClipPath1000a46746c3-a2d6-47ec-885e-d132ea5ac317"><path d=" M 0.3605637112749611 -4.541609400259897 L 5.022004648100038 -4.541609400259897 L 5.022004648100038 -0.25 L 0.3605637112749611 -0.25 Z"></path></clipPath></defs></svg>