<svg xmlns="http://www.w3.org/2000/svg" xmlns:xlink="http://www.w3.org/1999/xlink" width="500" zoomAndPan="magnify" viewBox="0 0 375 74.999997" height="100" preserveAspectRatio="xMidYMid meet" version="1.0"><defs><g/><clipPath id="31c49a90f0"><path d="M 82 2.203125 L 97 2.203125 L 97 14 L 82 14 Z M 82 2.203125 " clip-rule="nonzero"/></clipPath><clipPath id="6923147385"><path d="M 69.136719 62 L 83.882812 62 L 83.882812 72.941406 L 69.136719 72.941406 Z M 69.136719 62 " clip-rule="nonzero"/></clipPath></defs><path fill="#ff914d" d="M 106.648438 11.808594 L 90.105469 19.816406 C 86.085938 21.761719 83.949219 25.992188 84.414062 30.203125 L 109.628906 18 C 111.308594 17.1875 113.34375 17.898438 114.15625 19.585938 L 116.40625 24.269531 C 117.21875 25.957031 116.507812 27.996094 114.824219 28.8125 L 89.609375 41.011719 C 92.605469 44 97.238281 44.957031 101.257812 43.011719 L 117.800781 35.003906 C 122.898438 32.539062 125.035156 26.394531 122.578125 21.28125 L 120.328125 16.597656 C 117.867188 11.488281 111.746094 9.34375 106.648438 11.808594 Z M 51.753906 55.558594 L 49.503906 50.875 C 48.691406 49.1875 49.398438 47.148438 51.085938 46.332031 L 76.296875 34.132812 C 73.300781 31.144531 68.671875 30.1875 64.652344 32.132812 L 48.105469 40.140625 C 43.011719 42.609375 40.871094 48.75 43.332031 53.863281 L 45.582031 58.546875 C 48.039062 63.660156 54.164062 65.804688 59.261719 63.335938 L 75.804688 55.328125 C 79.824219 53.382812 81.960938 49.152344 81.496094 44.941406 L 56.28125 57.144531 C 54.597656 57.957031 52.566406 57.246094 51.753906 55.558594 " fill-opacity="1" fill-rule="nonzero"/><path fill="#ff914d" d="M 100.585938 30.0625 C 100.917969 30.746094 100.960938 31.535156 100.710938 32.253906 C 100.460938 32.976562 99.9375 33.5625 99.253906 33.894531 L 69.941406 48.082031 C 69.257812 48.414062 68.46875 48.457031 67.753906 48.207031 C 67.039062 47.957031 66.449219 47.429688 66.121094 46.742188 L 65.320312 45.082031 C 64.636719 43.65625 65.230469 41.9375 66.65625 41.25 L 95.96875 27.0625 C 97.390625 26.375 99.101562 26.972656 99.789062 28.402344 L 100.585938 30.0625 " fill-opacity="1" fill-rule="nonzero"/><path fill="#ff914d" d="M 54.726562 33.269531 C 54.523438 33.367188 54.289062 33.402344 54.050781 33.359375 C 53.457031 33.246094 53.0625 32.671875 53.171875 32.074219 C 54.925781 22.550781 61.136719 14.363281 69.78125 10.179688 C 75.542969 7.390625 81.910156 6.515625 88.195312 7.640625 C 88.792969 7.746094 89.191406 8.320312 89.085938 8.917969 C 88.976562 9.515625 88.402344 9.914062 87.808594 9.808594 C 81.984375 8.765625 76.078125 9.582031 70.738281 12.164062 C 62.71875 16.046875 56.960938 23.636719 55.332031 32.476562 C 55.265625 32.832031 55.03125 33.121094 54.726562 33.269531 " fill-opacity="1" fill-rule="nonzero"/><g clip-path="url(#31c49a90f0)"><path fill="#ff914d" d="M 85.527344 2.203125 L 86.117188 8.382812 L 82.09375 13.101562 L 96.6875 11.734375 L 85.527344 2.203125 " fill-opacity="1" fill-rule="nonzero"/></g><path fill="#ff914d" d="M 96.125 64.964844 C 90.367188 67.753906 84 68.632812 77.714844 67.507812 C 77.117188 67.398438 76.71875 66.828125 76.824219 66.230469 C 76.929688 65.628906 77.5 65.234375 78.097656 65.335938 C 83.925781 66.378906 89.832031 65.5625 95.171875 62.980469 C 103.1875 59.097656 108.945312 51.507812 110.578125 42.671875 C 110.6875 42.070312 111.261719 41.675781 111.859375 41.789062 C 112.453125 41.898438 112.847656 42.476562 112.738281 43.074219 C 110.980469 52.597656 104.769531 60.78125 96.125 64.964844 " fill-opacity="1" fill-rule="nonzero"/><g clip-path="url(#6923147385)"><path fill="#ff914d" d="M 80.378906 72.941406 L 79.789062 66.761719 L 83.816406 62.042969 L 69.222656 63.410156 L 80.378906 72.941406 " fill-opacity="1" fill-rule="nonzero"/></g><g fill="#ffffff" fill-opacity="1"><g transform="translate(130.396389, 51.074641)"><g><path d="M 12.984375 0 L 7.609375 0 L 7.609375 -20.90625 L 0.71875 -20.90625 L 0.71875 -25.390625 L 19.875 -25.390625 L 19.875 -20.90625 L 12.984375 -20.90625 Z M 12.984375 0 "/></g></g></g><g fill="#ffffff" fill-opacity="1"><g transform="translate(150.986162, 51.074641)"><g><path d="M 24 0 L 18.625 0 L 18.625 -10.953125 L 8.578125 -10.953125 L 8.578125 0 L 3.1875 0 L 3.1875 -25.390625 L 8.578125 -25.390625 L 8.578125 -15.4375 L 18.625 -15.4375 L 18.625 -25.390625 L 24 -25.390625 Z M 24 0 "/></g></g></g><g fill="#ffffff" fill-opacity="1"><g transform="translate(178.190357, 51.074641)"><g><path d="M 18.734375 0 L 16.890625 -6.046875 L 7.640625 -6.046875 L 5.796875 0 L 0 0 L 8.953125 -25.484375 L 15.546875 -25.484375 L 24.53125 0 Z M 15.609375 -10.5625 C 13.910156 -16.03125 12.953125 -19.125 12.734375 -19.84375 C 12.523438 -20.5625 12.375 -21.128906 12.28125 -21.546875 C 11.894531 -20.066406 10.800781 -16.40625 9 -10.5625 Z M 15.609375 -10.5625 "/></g></g></g><g fill="#ffffff" fill-opacity="1"><g transform="translate(202.721006, 51.074641)"><g><path d="M 12.984375 0 L 7.609375 0 L 7.609375 -20.90625 L 0.71875 -20.90625 L 0.71875 -25.390625 L 19.875 -25.390625 L 19.875 -20.90625 L 12.984375 -20.90625 Z M 12.984375 0 "/></g></g></g><g fill="#ffffff" fill-opacity="1"><g transform="translate(223.310779, 51.074641)"><g/></g></g><g fill="#ffffff" fill-opacity="1"><g transform="translate(232.546664, 51.074641)"><g><path d="M 3.1875 0 L 3.1875 -25.390625 L 8.578125 -25.390625 L 8.578125 -4.453125 L 18.875 -4.453125 L 18.875 0 Z M 3.1875 0 "/></g></g></g><g fill="#ffffff" fill-opacity="1"><g transform="translate(252.632978, 51.074641)"><g><path d="M 3.1875 0 L 3.1875 -25.390625 L 8.578125 -25.390625 L 8.578125 0 Z M 3.1875 0 "/></g></g></g><g fill="#ffffff" fill-opacity="1"><g transform="translate(264.403523, 51.074641)"><g><path d="M 25.71875 0 L 18.875 0 L 7.828125 -19.203125 L 7.671875 -19.203125 C 7.890625 -15.816406 8 -13.398438 8 -11.953125 L 8 0 L 3.1875 0 L 3.1875 -25.390625 L 9.984375 -25.390625 L 21.015625 -6.375 L 21.125 -6.375 C 20.957031 -9.675781 20.875 -12.007812 20.875 -13.375 L 20.875 -25.390625 L 25.71875 -25.390625 Z M 25.71875 0 "/></g></g></g><g fill="#ffffff" fill-opacity="1"><g transform="translate(293.309065, 51.074641)"><g><path d="M 23.609375 0 L 17.5 0 L 10.859375 -10.703125 L 8.578125 -9.0625 L 8.578125 0 L 3.1875 0 L 3.1875 -25.390625 L 8.578125 -25.390625 L 8.578125 -13.765625 L 10.703125 -16.75 L 17.578125 -25.390625 L 23.546875 -25.390625 L 14.6875 -14.15625 Z M 23.609375 0 "/></g></g></g></svg>